<svg xmlns="http://www.w3.org/2000/svg" width="35" height="35"><defs><clipPath id="clip-path"><path id="Rectangle_52" data-name="Rectangle 52" fill="#fc3" d="M0 0h21.081v20.798H0z"/></clipPath></defs><g id="Group_129" data-name="Group 129" transform="translate(-1358 -4547)"><g id="Ellipse_16" data-name="Ellipse 16" transform="translate(1358 4547)" fill="none" stroke="#fc3" stroke-width="1"><circle cx="17.5" cy="17.5" r="17.5" stroke="none"/><circle cx="17.5" cy="17.5" r="17"/></g><g id="Group_128" data-name="Group 128" transform="translate(1365 4554)"><g id="Group_127" data-name="Group 127" clip-path="url(#clip-path)" fill="#fc3"><path id="Path_1165" data-name="Path 1165" d="M4.065.312a2.357 2.357 0 01.952.864 2.322 2.322 0 01.344 1.255A2.392 2.392 0 015.024 3.7a2.307 2.307 0 01-.952.864 3.028 3.028 0 01-1.385.31A3.018 3.018 0 011.3 4.565 2.316 2.316 0 010 2.431a2.33 2.33 0 01.344-1.255A2.363 2.363 0 011.3.312 3.018 3.018 0 012.687 0a2.984 2.984 0 011.378.312M.284 6.186h4.862V20.8H.284z"/><path id="Path_1166" data-name="Path 1166" d="M19.879 7.266q1.2 1.35 1.2 4.457V20.8h-4.86v-9.09a2.608 2.608 0 00-.223-1.2 1.124 1.124 0 00-.634-.561 3.472 3.472 0 00-1.088-.141 2 2 0 00-1.755.81V20.8H7.671V6.186h4.537l.162 1.688a4.915 4.915 0 011.8-1.458 5.42 5.42 0 012.35-.5 4.268 4.268 0 013.363 1.35"/></g></g></g></svg>