<svg xmlns="http://www.w3.org/2000/svg" width="35" height="35"><g id="Group_130" data-name="Group 130" transform="translate(-1292 -4547)"><g id="Ellipse_15" data-name="Ellipse 15" transform="translate(1292 4547)" fill="none" stroke="#fc3" stroke-width="1"><circle cx="17.5" cy="17.5" r="17.5" stroke="none"/><circle cx="17.5" cy="17.5" r="17"/></g><path id="Path_1164" data-name="Path 1164" d="M23.549 6.061v2.863a.377.377 0 01-.01.146.215.215 0 01-.132.015H21.86c-.13 0-.262 0-.392.007a2.839 2.839 0 00-.8.156 1.849 1.849 0 00-1.188 1.261 2.6 2.6 0 00-.114.763v2.674a.17.17 0 00.01.092c.021.024.049.017.075.017h3.773a.367.367 0 01.151.014c-.009.071-.016.137-.028.2-.2 1.315-.4 2.634-.607 3.943a.166.166 0 01-.125.024H19.4c-.039.025-.031.054-.031.08v11.927h-4.531V18.255a.323.323 0 00-.154-.017H11.19c-.031-.026-.021-.057-.024-.082v-4.08a.269.269 0 01.14-.019h3.505a.108.108 0 00.027-.1v-3.089c0-.282.016-.56.042-.837a6.647 6.647 0 01.2-1.093 5.137 5.137 0 01.768-1.666l.073-.1a4.484 4.484 0 011.772-1.415 5.524 5.524 0 011.358-.414 7.945 7.945 0 011.4-.106c.3 0 .6.017.9.035a23.386 23.386 0 011.764.184l.218.028c.066.01.132.024.191.033.03.026.024.054.026.08z" transform="translate(1291.834 4546.76)" fill="#fc3"/></g></svg>