<svg xmlns="http://www.w3.org/2000/svg" width="721" height="883"><defs><clipPath id="clip-path"><path id="Rectangle_171" data-name="Rectangle 171" fill="#fff" stroke="#707070" stroke-width="1" d="M968 67h721v883H968z"/></clipPath></defs><g id="Mask_Group_22" data-name="Mask Group 22" transform="translate(-968 -67)" clip-path="url(#clip-path)"><g id="slide"><g id="_4" data-name="4" transform="translate(18)"><text id="_It_s_always_a_pleasure_to_review_the_results_" data-name="“It’s always a pleasure to review the results”" transform="translate(982 293.269)" fill="#fc3" font-size="60" font-family="Heebo-Light, Heebo" font-weight="300"><tspan x="30.813" y="63">“It’s always a pleasure </tspan><tspan x="44.642" y="138">to review the results”</tspan></text><text id="Udi_Haskelberg_CEO_of_Haskelberg_Nurseries_" data-name="Udi Haskelberg | CEO of Haskelberg Nurseries" transform="translate(982 463)" fill="#fc3" font-size="20" font-family="Heebo-Light, Heebo" font-weight="300"><tspan x="116.941" y="21">Udi Haskelberg | CEO of Haskelberg Nurseries</tspan></text><g id="Logo_english_CMYK" data-name="Logo english CMYK" transform="translate(1298.5 219.148)"><g id="Group_607" data-name="Group 607" transform="translate(-113.645 -41.38)"><path id="Line_346" data-name="Line 346" fill="none" stroke="#75ae1b" stroke-linecap="round" stroke-width="2.289" d="M31.697 39.162l3.012-1.895"/><path id="Line_347" data-name="Line 347" fill="none" stroke="#75ae1b" stroke-linecap="round" stroke-width="2.289" d="M24.364 39.162l-3.012-1.895"/><path id="Line_348" data-name="Line 348" fill="none" stroke="#75ae1b" stroke-linecap="round" stroke-width="2.289" d="M28.031 24.196v12.559"/><path id="Path_3853" data-name="Path 3853" d="M109.482 60.827a3.846 3.846 0 11-3.846 3.846 3.846 3.846 0 013.846-3.846" transform="translate(-81.452 -46.901)" fill="#fc442f"/><path id="Path_3854" data-name="Path 3854" d="M109.482 0a3.846 3.846 0 11-3.846 3.846A3.846 3.846 0 01109.482 0" transform="translate(-81.452)" fill="#fc442f"/><path id="Path_3855" data-name="Path 3855" d="M56.811 30.41a3.846 3.846 0 11-3.846 3.846 3.846 3.846 0 013.846-3.846" transform="translate(-40.839 -23.448)" fill="#fc442f"/><path id="Path_3856" data-name="Path 3856" d="M162.153 30.41a3.846 3.846 0 11-3.846 3.846 3.846 3.846 0 013.846-3.846" transform="translate(-122.065 -23.448)" fill="#fc442f"/><circle id="Ellipse_1277" data-name="Ellipse 1277" cx="3.846" cy="3.846" transform="rotate(-73.155 55.539 16.937)" fill="none" stroke="#75ae1b" stroke-width="2.289" r="3.846"/><circle id="Ellipse_1278" data-name="Ellipse 1278" cx="3.846" cy="3.846" transform="rotate(-73.155 65.879 24.61)" fill="none" stroke="#75ae1b" stroke-width="2.289" r="3.846"/><path id="Line_349" data-name="Line 349" fill="none" stroke="#75ae1b" stroke-width="2.289" d="M28.027 75.081v-9.538"/><path id="Path_3857" data-name="Path 3857" d="M36.757 67.659a3.846 3.846 0 111.408 5.254 3.846 3.846 0 01-1.408-5.254z" fill="none" stroke="#75ae1b" stroke-width="2.289"/><path id="Line_350" data-name="Line 350" fill="none" stroke="#75ae1b" stroke-width="2.289" d="M37.643 68.251l-7.001-4.197"/><path id="Path_3858" data-name="Path 3858" d="M19.303 67.658a3.846 3.846 0 11-5.254-1.408 3.847 3.847 0 015.254 1.408z" fill="none" stroke="#75ae1b" stroke-width="2.289"/><path id="Line_351" data-name="Line 351" fill="none" stroke="#75ae1b" stroke-width="2.289" d="M18.415 68.246l6.832-4.101"/><circle id="Ellipse_1279" data-name="Ellipse 1279" cx="3.846" cy="3.846" r="3.846" transform="rotate(-80.783 37.82 8.25)" fill="none" stroke="#75ae1b" stroke-width="2.289"/><path id="Path_3859" data-name="Path 3859" d="M158.723 138a3.846 3.846 0 115.254 1.408 3.847 3.847 0 01-5.254-1.408" transform="translate(-121.988 -101.957)" fill="#fc442f"/><path id="Path_3860" data-name="Path 3860" d="M214.734 96.808a3.846 3.846 0 11-3.846 3.846 3.846 3.846 0 013.846-3.846" transform="translate(-162.608 -74.645)" fill="#fc442f"/><path id="Path_3861" data-name="Path 3861" d="M162.063 89.013a3.846 3.846 0 113.846-3.846 3.846 3.846 0 01-3.846 3.846" transform="translate(-121.995 -62.703)" fill="#fc442f"/><path id="Path_3862" data-name="Path 3862" d="M214.734 160.494a3.846 3.846 0 11-3.846 3.846 3.846 3.846 0 013.846-3.846" transform="translate(-162.608 -123.751)" fill="#fc442f"/><path id="Line_352" data-name="Line 352" fill="none" stroke="#75ae1b" stroke-width="2.289" d="M28.031 44.599V59.85"/><path id="Path_3863" data-name="Path 3863" d="M56.524 132.231a3.846 3.846 0 11-3.846 3.846 3.846 3.846 0 013.846-3.846" transform="translate(-40.618 -101.958)" fill="#fc442f"/><path id="Path_3864" data-name="Path 3864" d="M3.846 96.808A3.846 3.846 0 110 100.654a3.846 3.846 0 013.846-3.846" transform="translate(0 -74.645)" fill="#fc442f"/><path id="Path_3865" data-name="Path 3865" d="M56.517 81.32a3.846 3.846 0 11-3.846 3.847 3.847 3.847 0 013.846-3.847" transform="translate(-40.613 -62.703)" fill="#fc442f"/><path id="Path_3866" data-name="Path 3866" d="M3.846 160.494A3.846 3.846 0 110 164.34a3.846 3.846 0 013.846-3.846" transform="translate(0 -123.751)" fill="#fc442f"/><path id="Path_3867" data-name="Path 3867" d="M220.857 170.273h3.128v13.9a1.352 1.352 0 01-1.353 1.352h-.423a1.352 1.352 0 01-1.353-1.352z" transform="translate(-170.295 -131.291)" fill="#fc442f"/><path id="Path_3868" data-name="Path 3868" d="M241.168 109.054a1.353 1.353 0 01-1.353 1.352H222.24a1.352 1.352 0 110-2.7h17.576a1.353 1.353 0 011.353 1.352" transform="translate(-170.318 -83.045)" fill="#fc442f"/><path id="Path_3869" data-name="Path 3869" d="M239.161 172.74a1.353 1.353 0 01-1.353 1.353h-15.567a1.352 1.352 0 110-2.7h15.568a1.352 1.352 0 011.353 1.352" transform="translate(-170.318 -132.151)" fill="#fc442f"/><path id="Path_3870" data-name="Path 3870" d="M340.018 125.237h-7.857v-14.831h7.857q4.393 0 6.719 1.923a7.626 7.626 0 010 10.964q-2.323 1.946-6.719 1.944m5.41 1.9a9.717 9.717 0 005.005-3.444 9.618 9.618 0 001.754-5.852 9.2 9.2 0 00-3.211-7.437q-3.211-2.7-8.872-2.7h-9.678a1.393 1.393 0 00-1.393 1.393v26.79a1.393 1.393 0 001.393 1.393h.342a1.393 1.393 0 001.393-1.393V127.9h7.939a21.823 21.823 0 002.365-.126l6.346 8.918a1.393 1.393 0 102.27-1.616z" transform="translate(-253.705 -83.044)" fill="#fc442f"/><path id="Path_3871" data-name="Path 3871" d="M478.975 127.917a11.446 11.446 0 01-4.438 4.395 13.5 13.5 0 01-12.7 0 11.546 11.546 0 01-4.477-4.395 12.895 12.895 0 010-12.546 11.546 11.546 0 014.477-4.395 13.5 13.5 0 0112.7 0 11.446 11.446 0 014.438 4.395 13.069 13.069 0 010 12.546m2.7-13.985a14.386 14.386 0 00-5.557-5.385 17.125 17.125 0 00-15.886.018 14.354 14.354 0 00-5.579 5.389 15.745 15.745 0 000 15.38 14.325 14.325 0 005.579 5.385 17.113 17.113 0 0015.886.021 14.386 14.386 0 005.557-5.385 15.68 15.68 0 000-15.423" transform="translate(-349.024 -82.198)" fill="#fc442f"/><path id="Path_3872" data-name="Path 3872" d="M634.18 127.917a11.465 11.465 0 01-4.437 4.395 13.5 13.5 0 01-12.7 0 11.549 11.549 0 01-4.478-4.395 12.9 12.9 0 010-12.546 11.549 11.549 0 014.478-4.395 13.5 13.5 0 0112.7 0 11.465 11.465 0 014.438 4.395 13.069 13.069 0 010 12.546m2.7-13.985a14.356 14.356 0 00-5.554-5.385 17.125 17.125 0 00-15.886.018 14.349 14.349 0 00-5.579 5.389 15.745 15.745 0 000 15.38 14.321 14.321 0 005.579 5.385 17.112 17.112 0 0015.886.021 14.356 14.356 0 005.554-5.385 15.662 15.662 0 000-15.423" transform="translate(-468.697 -82.198)" fill="#fc442f"/><path id="Path_3873" data-name="Path 3873" d="M770.534 110.411h-9.042a1.352 1.352 0 010-2.7H782.7a1.352 1.352 0 010 2.7h-9.04v25.52a1.352 1.352 0 01-1.352 1.352h-.423a1.352 1.352 0 01-1.352-1.352z" transform="translate(-586.116 -83.049)" fill="#fc442f"/><path id="Path_3874" data-name="Path 3874" d="M888.512 135.626a12.806 12.806 0 01-3.866-2.05 1.342 1.342 0 011.626-2.133 13.172 13.172 0 003.064 1.585 15.588 15.588 0 005.493.993q3.971 0 5.957-1.458a4.49 4.49 0 001.986-3.781 3.785 3.785 0 00-1.077-2.831 7.287 7.287 0 00-2.641-1.627 42.828 42.828 0 00-4.352-1.246 45.557 45.557 0 01-5.324-1.627 8.727 8.727 0 01-3.4-2.387 6.344 6.344 0 01-1.415-4.352 7.377 7.377 0 011.183-4.077 8.105 8.105 0 013.634-2.936 14.878 14.878 0 016.084-1.1 17.906 17.906 0 014.965.7 15.277 15.277 0 013.159 1.277 1.355 1.355 0 01-1.293 2.382 14.472 14.472 0 00-2.69-1.082 14.844 14.844 0 00-4.141-.613 9.558 9.558 0 00-5.852 1.5 4.653 4.653 0 00-1.964 3.866 3.856 3.856 0 001.077 2.852 7.062 7.062 0 002.7 1.648q1.626.57 4.373 1.246a44.1 44.1 0 015.26 1.584 8.637 8.637 0 013.4 2.366 6.263 6.263 0 011.395 4.289 7.281 7.281 0 01-1.2 4.077 8.1 8.1 0 01-3.7 2.915 15.448 15.448 0 01-6.126 1.077 18.991 18.991 0 01-6.317-1.056" transform="translate(-681.741 -82.195)" fill="#fc442f"/><path id="Path_3875" data-name="Path 3875" d="M374.017 286.615v-14.628H190.292a8.822 8.822 0 012.746 11.7 8.674 8.674 0 01-2.739 2.93z" transform="translate(-146.727 -209.719)" fill="#75ae1b"/><path id="Path_3876" data-name="Path 3876" d="M400.721 294.545h2.072v-2.6l2.361-4.938h-2.169l-.578 1.576q-.205.568-.241.672-.193.487-.373 1.009h-.048q-.073-.22-.138-.406t-.127-.336l-.325-.939-.578-1.576h-2.217l2.361 4.938zm-6.87-5.958h.747a1.832 1.832 0 01.946.191.722.722 0 01.307.666.893.893 0 01-.319.742 1.469 1.469 0 01-.934.255h-.747zm4.458 5.958l-1.7-2.921a2.375 2.375 0 00.928-.858 2.462 2.462 0 00.337-1.321 2.066 2.066 0 00-.862-1.872 4.1 4.1 0 00-2.271-.562h-2.964v7.534h2.072v-2.527h.8l1.349 2.527zm-13.322 0h5.18v-1.669h-3.108v-1.345h2.554v-1.669h-2.554v-1.182h2.988v-1.669h-5.06zm-4.416.139a3.756 3.756 0 001.632-.33 2.562 2.562 0 001.06-.881 2.118 2.118 0 00.367-1.2 2.086 2.086 0 00-1.53-2.063l-.952-.359q-.338-.116-.614-.232a1.524 1.524 0 01-.41-.232.368.368 0 01-.133-.29.419.419 0 01.217-.377 1.15 1.15 0 01.6-.134 2.3 2.3 0 01.789.134 3.567 3.567 0 01.777.411l1.036-1.252a3.442 3.442 0 00-1.211-.753 4.006 4.006 0 00-1.391-.255 3.5 3.5 0 00-1.5.313 2.546 2.546 0 00-1.042.852 2.023 2.023 0 00-.374 1.176 1.973 1.973 0 00.44 1.3 2.68 2.68 0 001.138.8l.976.394q.313.116.566.226a1.385 1.385 0 01.373.22.368.368 0 01.12.284q0 .533-.891.533a2.422 2.422 0 01-.916-.2 3.946 3.946 0 01-.915-.527l-1.181 1.368a4.221 4.221 0 001.4.806 4.766 4.766 0 001.56.272m-8.107-6.1h.747a1.832 1.832 0 01.946.191.722.722 0 01.307.666.893.893 0 01-.319.742 1.469 1.469 0 01-.934.255h-.747zm4.458 5.958l-1.7-2.921a2.377 2.377 0 00.928-.858 2.462 2.462 0 00.337-1.321 2.066 2.066 0 00-.861-1.872 4.1 4.1 0 00-2.271-.562h-2.964v7.534h2.072v-2.527h.8l1.349 2.527zm-11.5.139a3 3 0 002.422-.922 4.349 4.349 0 00.783-2.857v-3.894h-2v4.126a2.583 2.583 0 01-.289 1.408 1.03 1.03 0 01-.916.423 1 1 0 01-.9-.417 2.67 2.67 0 01-.277-1.414v-4.126h-2.072v3.894a4.28 4.28 0 00.8 2.851 3.066 3.066 0 002.452.927m-11.374-.139h1.976v-2.179a18.549 18.549 0 00-.193-2.26l-.072-.615h.048l.747 1.681 1.735 3.373h2.12v-7.534h-1.976v2.179a20.717 20.717 0 00.2 2.411q.048.336.06.464h-.048l-.747-1.692-1.735-3.361h-2.12zm-8.366 0h2.072v-5.865h2.072v-1.669h-6.216v1.669h2.072zm-9.608 0h1.976v-2.179a18.546 18.546 0 00-.193-2.26l-.072-.615h.048l.747 1.681 1.735 3.373h2.12v-7.534h-1.976v2.179a20.71 20.71 0 00.2 2.411q.048.336.06.464h-.048l-.747-1.692-1.735-3.361h-2.12zm-5.386-3.141l.133-.522q.217-.788.482-2.063l.072-.325h.048l.265 1.089q.157.707.313 1.3l.133.522zm2.2 3.141h2.193l-2.385-7.534h-2.506l-2.385 7.534h2.12l.386-1.6h2.193zm-10.923 0h5.036v-1.669h-2.964v-5.865h-2.072zm-5.207-3.964v-1.994h.7a1.643 1.643 0 01.934.22.8.8 0 01.319.707 1.02 1.02 0 01-.3.788 1.291 1.291 0 01-.9.278zm-2.072 3.964h2.072v-2.388h.843a4.187 4.187 0 001.566-.284 2.514 2.514 0 001.138-.881 2.472 2.472 0 00.428-1.478 2.134 2.134 0 00-.88-1.918 4.086 4.086 0 00-2.3-.585h-2.857zm-7.233.139a4.335 4.335 0 001.506-.261 3.335 3.335 0 001.144-.666v-3.593h-2.977v1.623h1.157v1.043a1.11 1.11 0 01-.6.139 1.972 1.972 0 01-1.542-.562 2.376 2.376 0 01-.506-1.64 2.32 2.32 0 01.518-1.594 1.7 1.7 0 011.337-.585 1.874 1.874 0 01.753.139 2.6 2.6 0 01.645.417l1.084-1.275a3.674 3.674 0 00-1.1-.719 3.631 3.631 0 00-1.452-.278 4.083 4.083 0 00-1.952.475 3.586 3.586 0 00-1.422 1.374 4.519 4.519 0 00-.012 4.225 3.281 3.281 0 001.416 1.3 4.568 4.568 0 002.018.435m-9.118-6.1h.747a1.831 1.831 0 01.946.191.722.722 0 01.307.666.893.893 0 01-.319.742 1.469 1.469 0 01-.934.255h-.747zm4.458 5.958l-1.7-2.921a2.377 2.377 0 00.928-.858 2.463 2.463 0 00.337-1.321 2.066 2.066 0 00-.861-1.872 4.1 4.1 0 00-2.271-.562h-2.964v7.534h2.072v-2.527h.8l1.349 2.527zm-13.322 0h5.18v-1.669h-3.108v-1.345h2.548v-1.669h-2.554v-1.176h2.988v-1.669h-5.06zm-5.442-1.53v-1.6h.843a1.791 1.791 0 01.915.18.636.636 0 01.289.585q0 .834-1.2.835zm0-3.06v-1.414h.7a1.446 1.446 0 01.747.151.542.542 0 01.241.5.688.688 0 01-.247.562 1.148 1.148 0 01-.741.2zm-2.072 4.59h3.06a4.038 4.038 0 002.217-.556 1.852 1.852 0 00.867-1.669 1.714 1.714 0 00-.374-1.147 1.956 1.956 0 00-.976-.614v-.046a1.457 1.457 0 00.711-.643 1.9 1.9 0 00.277-.979 1.51 1.51 0 00-.8-1.455 4.652 4.652 0 00-2.169-.423h-2.819zm-6.3 0h5.034v-1.669h-2.964v-5.865h-2.076zm-6.792 0h5.18v-1.669h-3.114v-1.345h2.554v-1.669h-2.554v-1.176h2.988v-1.669h-5.06zm-7.8 0h2.072v-1.878l.747-1.02 1.735 2.9h2.265l-2.8-4.474 2.337-3.06h-2.265l-1.976 2.8h-.048v-2.8h-2.072zm-4.416.139a3.757 3.757 0 001.633-.33 2.564 2.564 0 001.06-.881 2.119 2.119 0 00.367-1.2 2.086 2.086 0 00-1.53-2.063l-.952-.359q-.337-.116-.614-.232a1.53 1.53 0 01-.41-.232.369.369 0 01-.133-.29.419.419 0 01.217-.377 1.15 1.15 0 01.6-.134 2.3 2.3 0 01.789.134 3.573 3.573 0 01.777.411l1.036-1.252a3.44 3.44 0 00-1.211-.753 4.008 4.008 0 00-1.392-.255 3.5 3.5 0 00-1.5.313 2.546 2.546 0 00-1.042.852 2.023 2.023 0 00-.373 1.176 1.972 1.972 0 00.44 1.3 2.678 2.678 0 001.139.8l.976.394q.313.116.566.226a1.388 1.388 0 01.374.22.368.368 0 01.12.284q0 .533-.892.533a2.423 2.423 0 01-.916-.2 3.955 3.955 0 01-.915-.527l-1.181 1.368a4.217 4.217 0 001.4.806 4.765 4.765 0 001.56.272m-8-3.28l.133-.522q.217-.788.482-2.063l.072-.325h.048l.265 1.089q.156.707.313 1.3l.133.522zm2.2 3.141h2.193l-2.385-7.534h-2.499l-2.385 7.534h2.12l.386-1.6h2.193zm-12.548 0h2.072v-2.99h2.337v2.99h2.072v-7.534h-2.072v2.8h-2.337v-2.8h-2.065z" transform="translate(-183.752 -221.196)" fill="#fff"/></g></g><g id="Logo_english_CMYK-2" data-name="Logo english CMYK" transform="translate(1298.5 219.148)"><g id="Group_1002" data-name="Group 1002" transform="translate(-113.645 -41.38)"><path id="Line_353" data-name="Line 353" fill="none" stroke="#75ae1b" stroke-linecap="round" stroke-width="2.289" d="M31.697 39.162l3.012-1.895"/><path id="Line_354" data-name="Line 354" fill="none" stroke="#75ae1b" stroke-linecap="round" stroke-width="2.289" d="M24.364 39.162l-3.012-1.895"/><path id="Line_355" data-name="Line 355" fill="none" stroke="#75ae1b" stroke-linecap="round" stroke-width="2.289" d="M28.031 24.196v12.559"/><path id="Path_11705" data-name="Path 11705" d="M109.482 60.827a3.846 3.846 0 11-3.846 3.846 3.846 3.846 0 013.846-3.846" transform="translate(-81.452 -46.901)" fill="#fc442f"/><path id="Path_11706" data-name="Path 11706" d="M109.482 0a3.846 3.846 0 11-3.846 3.846A3.846 3.846 0 01109.482 0" transform="translate(-81.452)" fill="#fc442f"/><path id="Path_11707" data-name="Path 11707" d="M56.811 30.41a3.846 3.846 0 11-3.846 3.846 3.846 3.846 0 013.846-3.846" transform="translate(-40.839 -23.448)" fill="#fc442f"/><path id="Path_11708" data-name="Path 11708" d="M162.153 30.41a3.846 3.846 0 11-3.846 3.846 3.846 3.846 0 013.846-3.846" transform="translate(-122.065 -23.448)" fill="#fc442f"/><circle id="Ellipse_1280" data-name="Ellipse 1280" cx="3.846" cy="3.846" transform="rotate(-73.155 55.539 16.937)" fill="none" stroke="#75ae1b" stroke-width="2.289" r="3.846"/><circle id="Ellipse_1281" data-name="Ellipse 1281" cx="3.846" cy="3.846" transform="rotate(-73.155 65.879 24.61)" fill="none" stroke="#75ae1b" stroke-width="2.289" r="3.846"/><path id="Line_356" data-name="Line 356" fill="none" stroke="#75ae1b" stroke-width="2.289" d="M28.027 75.081v-9.538"/><path id="Path_11709" data-name="Path 11709" d="M36.757 67.659a3.846 3.846 0 111.408 5.254 3.846 3.846 0 01-1.408-5.254z" fill="none" stroke="#75ae1b" stroke-width="2.289"/><path id="Line_357" data-name="Line 357" fill="none" stroke="#75ae1b" stroke-width="2.289" d="M37.643 68.251l-7.001-4.197"/><path id="Path_11710" data-name="Path 11710" d="M19.303 67.658a3.846 3.846 0 11-5.254-1.408 3.847 3.847 0 015.254 1.408z" fill="none" stroke="#75ae1b" stroke-width="2.289"/><path id="Line_358" data-name="Line 358" fill="none" stroke="#75ae1b" stroke-width="2.289" d="M18.415 68.246l6.832-4.101"/><circle id="Ellipse_1282" data-name="Ellipse 1282" cx="3.846" cy="3.846" r="3.846" transform="rotate(-80.783 37.82 8.25)" fill="none" stroke="#75ae1b" stroke-width="2.289"/><path id="Path_11711" data-name="Path 11711" d="M158.723 138a3.846 3.846 0 115.254 1.408 3.847 3.847 0 01-5.254-1.408" transform="translate(-121.988 -101.957)" fill="#fc442f"/><path id="Path_11712" data-name="Path 11712" d="M214.734 96.808a3.846 3.846 0 11-3.846 3.846 3.846 3.846 0 013.846-3.846" transform="translate(-162.608 -74.645)" fill="#fc442f"/><path id="Path_11713" data-name="Path 11713" d="M162.063 89.013a3.846 3.846 0 113.846-3.846 3.846 3.846 0 01-3.846 3.846" transform="translate(-121.995 -62.703)" fill="#fc442f"/><path id="Path_11714" data-name="Path 11714" d="M214.734 160.494a3.846 3.846 0 11-3.846 3.846 3.846 3.846 0 013.846-3.846" transform="translate(-162.608 -123.751)" fill="#fc442f"/><path id="Line_359" data-name="Line 359" fill="none" stroke="#75ae1b" stroke-width="2.289" d="M28.031 44.599V59.85"/><path id="Path_11715" data-name="Path 11715" d="M56.524 132.231a3.846 3.846 0 11-3.846 3.846 3.846 3.846 0 013.846-3.846" transform="translate(-40.618 -101.958)" fill="#fc442f"/><path id="Path_11716" data-name="Path 11716" d="M3.846 96.808A3.846 3.846 0 110 100.654a3.846 3.846 0 013.846-3.846" transform="translate(0 -74.645)" fill="#fc442f"/><path id="Path_11717" data-name="Path 11717" d="M56.517 81.32a3.846 3.846 0 11-3.846 3.847 3.847 3.847 0 013.846-3.847" transform="translate(-40.613 -62.703)" fill="#fc442f"/><path id="Path_11718" data-name="Path 11718" d="M3.846 160.494A3.846 3.846 0 110 164.34a3.846 3.846 0 013.846-3.846" transform="translate(0 -123.751)" fill="#fc442f"/><path id="Path_11719" data-name="Path 11719" d="M220.857 170.273h3.128v13.9a1.352 1.352 0 01-1.353 1.352h-.423a1.352 1.352 0 01-1.353-1.352z" transform="translate(-170.295 -131.291)" fill="#fc442f"/><path id="Path_11720" data-name="Path 11720" d="M241.168 109.054a1.353 1.353 0 01-1.353 1.352H222.24a1.352 1.352 0 110-2.7h17.576a1.353 1.353 0 011.353 1.352" transform="translate(-170.318 -83.045)" fill="#fc442f"/><path id="Path_11721" data-name="Path 11721" d="M239.161 172.74a1.353 1.353 0 01-1.353 1.353h-15.567a1.352 1.352 0 110-2.7h15.568a1.352 1.352 0 011.353 1.352" transform="translate(-170.318 -132.151)" fill="#fc442f"/><path id="Path_11722" data-name="Path 11722" d="M340.018 125.237h-7.857v-14.831h7.857q4.393 0 6.719 1.923a7.626 7.626 0 010 10.964q-2.323 1.946-6.719 1.944m5.41 1.9a9.717 9.717 0 005.005-3.444 9.618 9.618 0 001.754-5.852 9.2 9.2 0 00-3.211-7.437q-3.211-2.7-8.872-2.7h-9.678a1.393 1.393 0 00-1.393 1.393v26.79a1.393 1.393 0 001.393 1.393h.342a1.393 1.393 0 001.393-1.393V127.9h7.939a21.823 21.823 0 002.365-.126l6.346 8.918a1.393 1.393 0 102.27-1.616z" transform="translate(-253.705 -83.044)" fill="#fc442f"/><path id="Path_11723" data-name="Path 11723" d="M478.975 127.917a11.446 11.446 0 01-4.438 4.395 13.5 13.5 0 01-12.7 0 11.546 11.546 0 01-4.477-4.395 12.895 12.895 0 010-12.546 11.546 11.546 0 014.477-4.395 13.5 13.5 0 0112.7 0 11.446 11.446 0 014.438 4.395 13.069 13.069 0 010 12.546m2.7-13.985a14.386 14.386 0 00-5.557-5.385 17.125 17.125 0 00-15.886.018 14.354 14.354 0 00-5.579 5.389 15.745 15.745 0 000 15.38 14.325 14.325 0 005.579 5.385 17.113 17.113 0 0015.886.021 14.386 14.386 0 005.557-5.385 15.68 15.68 0 000-15.423" transform="translate(-349.024 -82.198)" fill="#fc442f"/><path id="Path_11724" data-name="Path 11724" d="M634.18 127.917a11.465 11.465 0 01-4.437 4.395 13.5 13.5 0 01-12.7 0 11.549 11.549 0 01-4.478-4.395 12.9 12.9 0 010-12.546 11.549 11.549 0 014.478-4.395 13.5 13.5 0 0112.7 0 11.465 11.465 0 014.438 4.395 13.069 13.069 0 010 12.546m2.7-13.985a14.356 14.356 0 00-5.554-5.385 17.125 17.125 0 00-15.886.018 14.349 14.349 0 00-5.579 5.389 15.745 15.745 0 000 15.38 14.321 14.321 0 005.579 5.385 17.112 17.112 0 0015.886.021 14.356 14.356 0 005.554-5.385 15.662 15.662 0 000-15.423" transform="translate(-468.697 -82.198)" fill="#fc442f"/><path id="Path_11725" data-name="Path 11725" d="M770.534 110.411h-9.042a1.352 1.352 0 010-2.7H782.7a1.352 1.352 0 010 2.7h-9.04v25.52a1.352 1.352 0 01-1.352 1.352h-.423a1.352 1.352 0 01-1.352-1.352z" transform="translate(-586.116 -83.049)" fill="#fc442f"/><path id="Path_11726" data-name="Path 11726" d="M888.512 135.626a12.806 12.806 0 01-3.866-2.05 1.342 1.342 0 011.626-2.133 13.172 13.172 0 003.064 1.585 15.588 15.588 0 005.493.993q3.971 0 5.957-1.458a4.49 4.49 0 001.986-3.781 3.785 3.785 0 00-1.077-2.831 7.287 7.287 0 00-2.641-1.627 42.828 42.828 0 00-4.352-1.246 45.557 45.557 0 01-5.324-1.627 8.727 8.727 0 01-3.4-2.387 6.344 6.344 0 01-1.415-4.352 7.377 7.377 0 011.183-4.077 8.105 8.105 0 013.634-2.936 14.878 14.878 0 016.084-1.1 17.906 17.906 0 014.965.7 15.277 15.277 0 013.159 1.277 1.355 1.355 0 01-1.293 2.382 14.472 14.472 0 00-2.69-1.082 14.844 14.844 0 00-4.141-.613 9.558 9.558 0 00-5.852 1.5 4.653 4.653 0 00-1.964 3.866 3.856 3.856 0 001.077 2.852 7.062 7.062 0 002.7 1.648q1.626.57 4.373 1.246a44.1 44.1 0 015.26 1.584 8.637 8.637 0 013.4 2.366 6.263 6.263 0 011.395 4.289 7.281 7.281 0 01-1.2 4.077 8.1 8.1 0 01-3.7 2.915 15.448 15.448 0 01-6.126 1.077 18.991 18.991 0 01-6.317-1.056" transform="translate(-681.741 -82.195)" fill="#fc442f"/><path id="Path_11727" data-name="Path 11727" d="M374.017 286.615v-14.628H190.292a8.822 8.822 0 012.746 11.7 8.674 8.674 0 01-2.739 2.93z" transform="translate(-146.727 -209.719)" fill="#75ae1b"/><path id="Path_11728" data-name="Path 11728" d="M400.721 294.545h2.072v-2.6l2.361-4.938h-2.169l-.578 1.576q-.205.568-.241.672-.193.487-.373 1.009h-.048q-.073-.22-.138-.406t-.127-.336l-.325-.939-.578-1.576h-2.217l2.361 4.938zm-6.87-5.958h.747a1.832 1.832 0 01.946.191.722.722 0 01.307.666.893.893 0 01-.319.742 1.469 1.469 0 01-.934.255h-.747zm4.458 5.958l-1.7-2.921a2.375 2.375 0 00.928-.858 2.462 2.462 0 00.337-1.321 2.066 2.066 0 00-.862-1.872 4.1 4.1 0 00-2.271-.562h-2.964v7.534h2.072v-2.527h.8l1.349 2.527zm-13.322 0h5.18v-1.669h-3.108v-1.345h2.554v-1.669h-2.554v-1.182h2.988v-1.669h-5.06zm-4.416.139a3.756 3.756 0 001.632-.33 2.562 2.562 0 001.06-.881 2.118 2.118 0 00.367-1.2 2.086 2.086 0 00-1.53-2.063l-.952-.359q-.338-.116-.614-.232a1.524 1.524 0 01-.41-.232.368.368 0 01-.133-.29.419.419 0 01.217-.377 1.15 1.15 0 01.6-.134 2.3 2.3 0 01.789.134 3.567 3.567 0 01.777.411l1.036-1.252a3.442 3.442 0 00-1.211-.753 4.006 4.006 0 00-1.391-.255 3.5 3.5 0 00-1.5.313 2.546 2.546 0 00-1.042.852 2.023 2.023 0 00-.374 1.176 1.973 1.973 0 00.44 1.3 2.68 2.68 0 001.138.8l.976.394q.313.116.566.226a1.385 1.385 0 01.373.22.368.368 0 01.12.284q0 .533-.891.533a2.422 2.422 0 01-.916-.2 3.946 3.946 0 01-.915-.527l-1.181 1.368a4.221 4.221 0 001.4.806 4.766 4.766 0 001.56.272m-8.107-6.1h.747a1.832 1.832 0 01.946.191.722.722 0 01.307.666.893.893 0 01-.319.742 1.469 1.469 0 01-.934.255h-.747zm4.458 5.958l-1.7-2.921a2.377 2.377 0 00.928-.858 2.462 2.462 0 00.337-1.321 2.066 2.066 0 00-.861-1.872 4.1 4.1 0 00-2.271-.562h-2.964v7.534h2.072v-2.527h.8l1.349 2.527zm-11.5.139a3 3 0 002.422-.922 4.349 4.349 0 00.783-2.857v-3.894h-2v4.126a2.583 2.583 0 01-.289 1.408 1.03 1.03 0 01-.916.423 1 1 0 01-.9-.417 2.67 2.67 0 01-.277-1.414v-4.126h-2.072v3.894a4.28 4.28 0 00.8 2.851 3.066 3.066 0 002.452.927m-11.374-.139h1.976v-2.179a18.549 18.549 0 00-.193-2.26l-.072-.615h.048l.747 1.681 1.735 3.373h2.12v-7.534h-1.976v2.179a20.717 20.717 0 00.2 2.411q.048.336.06.464h-.048l-.747-1.692-1.735-3.361h-2.12zm-8.366 0h2.072v-5.865h2.072v-1.669h-6.216v1.669h2.072zm-9.608 0h1.976v-2.179a18.546 18.546 0 00-.193-2.26l-.072-.615h.048l.747 1.681 1.735 3.373h2.12v-7.534h-1.976v2.179a20.71 20.71 0 00.2 2.411q.048.336.06.464h-.048l-.747-1.692-1.735-3.361h-2.12zm-5.386-3.141l.133-.522q.217-.788.482-2.063l.072-.325h.048l.265 1.089q.157.707.313 1.3l.133.522zm2.2 3.141h2.193l-2.385-7.534h-2.506l-2.385 7.534h2.12l.386-1.6h2.193zm-10.923 0h5.036v-1.669h-2.964v-5.865h-2.072zm-5.207-3.964v-1.994h.7a1.643 1.643 0 01.934.22.8.8 0 01.319.707 1.02 1.02 0 01-.3.788 1.291 1.291 0 01-.9.278zm-2.072 3.964h2.072v-2.388h.843a4.187 4.187 0 001.566-.284 2.514 2.514 0 001.138-.881 2.472 2.472 0 00.428-1.478 2.134 2.134 0 00-.88-1.918 4.086 4.086 0 00-2.3-.585h-2.857zm-7.233.139a4.335 4.335 0 001.506-.261 3.335 3.335 0 001.144-.666v-3.593h-2.977v1.623h1.157v1.043a1.11 1.11 0 01-.6.139 1.972 1.972 0 01-1.542-.562 2.376 2.376 0 01-.506-1.64 2.32 2.32 0 01.518-1.594 1.7 1.7 0 011.337-.585 1.874 1.874 0 01.753.139 2.6 2.6 0 01.645.417l1.084-1.275a3.674 3.674 0 00-1.1-.719 3.631 3.631 0 00-1.452-.278 4.083 4.083 0 00-1.952.475 3.586 3.586 0 00-1.422 1.374 4.519 4.519 0 00-.012 4.225 3.281 3.281 0 001.416 1.3 4.568 4.568 0 002.018.435m-9.118-6.1h.747a1.831 1.831 0 01.946.191.722.722 0 01.307.666.893.893 0 01-.319.742 1.469 1.469 0 01-.934.255h-.747zm4.458 5.958l-1.7-2.921a2.377 2.377 0 00.928-.858 2.463 2.463 0 00.337-1.321 2.066 2.066 0 00-.861-1.872 4.1 4.1 0 00-2.271-.562h-2.964v7.534h2.072v-2.527h.8l1.349 2.527zm-13.322 0h5.18v-1.669h-3.108v-1.345h2.548v-1.669h-2.554v-1.176h2.988v-1.669h-5.06zm-5.442-1.53v-1.6h.843a1.791 1.791 0 01.915.18.636.636 0 01.289.585q0 .834-1.2.835zm0-3.06v-1.414h.7a1.446 1.446 0 01.747.151.542.542 0 01.241.5.688.688 0 01-.247.562 1.148 1.148 0 01-.741.2zm-2.072 4.59h3.06a4.038 4.038 0 002.217-.556 1.852 1.852 0 00.867-1.669 1.714 1.714 0 00-.374-1.147 1.956 1.956 0 00-.976-.614v-.046a1.457 1.457 0 00.711-.643 1.9 1.9 0 00.277-.979 1.51 1.51 0 00-.8-1.455 4.652 4.652 0 00-2.169-.423h-2.819zm-6.3 0h5.034v-1.669h-2.964v-5.865h-2.076zm-6.792 0h5.18v-1.669h-3.114v-1.345h2.554v-1.669h-2.554v-1.176h2.988v-1.669h-5.06zm-7.8 0h2.072v-1.878l.747-1.02 1.735 2.9h2.265l-2.8-4.474 2.337-3.06h-2.265l-1.976 2.8h-.048v-2.8h-2.072zm-4.416.139a3.757 3.757 0 001.633-.33 2.564 2.564 0 001.06-.881 2.119 2.119 0 00.367-1.2 2.086 2.086 0 00-1.53-2.063l-.952-.359q-.337-.116-.614-.232a1.53 1.53 0 01-.41-.232.369.369 0 01-.133-.29.419.419 0 01.217-.377 1.15 1.15 0 01.6-.134 2.3 2.3 0 01.789.134 3.573 3.573 0 01.777.411l1.036-1.252a3.44 3.44 0 00-1.211-.753 4.008 4.008 0 00-1.392-.255 3.5 3.5 0 00-1.5.313 2.546 2.546 0 00-1.042.852 2.023 2.023 0 00-.373 1.176 1.972 1.972 0 00.44 1.3 2.678 2.678 0 001.139.8l.976.394q.313.116.566.226a1.388 1.388 0 01.374.22.368.368 0 01.12.284q0 .533-.892.533a2.423 2.423 0 01-.916-.2 3.955 3.955 0 01-.915-.527l-1.181 1.368a4.217 4.217 0 001.4.806 4.765 4.765 0 001.56.272m-8-3.28l.133-.522q.217-.788.482-2.063l.072-.325h.048l.265 1.089q.156.707.313 1.3l.133.522zm2.2 3.141h2.193l-2.385-7.534h-2.499l-2.385 7.534h2.12l.386-1.6h2.193zm-12.548 0h2.072v-2.99h2.337v2.99h2.072v-7.534h-2.072v2.8h-2.337v-2.8h-2.065z" transform="translate(-183.752 -221.196)" fill="#fff"/></g></g></g><g id="_3" data-name="3" transform="translate(27 426.231)"><g id="Logo_english_CMYK-3" data-name="Logo english CMYK" transform="translate(1298.5 219.148)"><g id="Group_607-2" data-name="Group 607" transform="translate(-113.645 -41.38)"><path id="Line_346-2" data-name="Line 346" fill="none" stroke="#75ae1b" stroke-linecap="round" stroke-width="2.289" d="M31.697 39.162l3.012-1.895"/><path id="Line_347-2" data-name="Line 347" fill="none" stroke="#75ae1b" stroke-linecap="round" stroke-width="2.289" d="M24.364 39.162l-3.012-1.895"/><path id="Line_348-2" data-name="Line 348" fill="none" stroke="#75ae1b" stroke-linecap="round" stroke-width="2.289" d="M28.031 24.196v12.559"/><path id="Path_3853-2" data-name="Path 3853" d="M109.482 60.827a3.846 3.846 0 11-3.846 3.846 3.846 3.846 0 013.846-3.846" transform="translate(-81.452 -46.901)" fill="#fc442f"/><path id="Path_3854-2" data-name="Path 3854" d="M109.482 0a3.846 3.846 0 11-3.846 3.846A3.846 3.846 0 01109.482 0" transform="translate(-81.452)" fill="#fc442f"/><path id="Path_3855-2" data-name="Path 3855" d="M56.811 30.41a3.846 3.846 0 11-3.846 3.846 3.846 3.846 0 013.846-3.846" transform="translate(-40.839 -23.448)" fill="#fc442f"/><path id="Path_3856-2" data-name="Path 3856" d="M162.153 30.41a3.846 3.846 0 11-3.846 3.846 3.846 3.846 0 013.846-3.846" transform="translate(-122.065 -23.448)" fill="#fc442f"/><circle id="Ellipse_1277-2" data-name="Ellipse 1277" cx="3.846" cy="3.846" transform="rotate(-73.155 55.539 16.937)" fill="none" stroke="#75ae1b" stroke-width="2.289" r="3.846"/><circle id="Ellipse_1278-2" data-name="Ellipse 1278" cx="3.846" cy="3.846" transform="rotate(-73.155 65.879 24.61)" fill="none" stroke="#75ae1b" stroke-width="2.289" r="3.846"/><path id="Line_349-2" data-name="Line 349" fill="none" stroke="#75ae1b" stroke-width="2.289" d="M28.027 75.081v-9.538"/><path id="Path_3857-2" data-name="Path 3857" d="M36.757 67.659a3.846 3.846 0 111.408 5.254 3.846 3.846 0 01-1.408-5.254z" fill="none" stroke="#75ae1b" stroke-width="2.289"/><path id="Line_350-2" data-name="Line 350" fill="none" stroke="#75ae1b" stroke-width="2.289" d="M37.643 68.251l-7.001-4.197"/><path id="Path_3858-2" data-name="Path 3858" d="M19.303 67.658a3.846 3.846 0 11-5.254-1.408 3.847 3.847 0 015.254 1.408z" fill="none" stroke="#75ae1b" stroke-width="2.289"/><path id="Line_351-2" data-name="Line 351" fill="none" stroke="#75ae1b" stroke-width="2.289" d="M18.415 68.246l6.832-4.101"/><circle id="Ellipse_1279-2" data-name="Ellipse 1279" cx="3.846" cy="3.846" r="3.846" transform="rotate(-80.783 37.82 8.25)" fill="none" stroke="#75ae1b" stroke-width="2.289"/><path id="Path_3859-2" data-name="Path 3859" d="M158.723 138a3.846 3.846 0 115.254 1.408 3.847 3.847 0 01-5.254-1.408" transform="translate(-121.988 -101.957)" fill="#fc442f"/><path id="Path_3860-2" data-name="Path 3860" d="M214.734 96.808a3.846 3.846 0 11-3.846 3.846 3.846 3.846 0 013.846-3.846" transform="translate(-162.608 -74.645)" fill="#fc442f"/><path id="Path_3861-2" data-name="Path 3861" d="M162.063 89.013a3.846 3.846 0 113.846-3.846 3.846 3.846 0 01-3.846 3.846" transform="translate(-121.995 -62.703)" fill="#fc442f"/><path id="Path_3862-2" data-name="Path 3862" d="M214.734 160.494a3.846 3.846 0 11-3.846 3.846 3.846 3.846 0 013.846-3.846" transform="translate(-162.608 -123.751)" fill="#fc442f"/><path id="Line_352-2" data-name="Line 352" fill="none" stroke="#75ae1b" stroke-width="2.289" d="M28.031 44.599V59.85"/><path id="Path_3863-2" data-name="Path 3863" d="M56.524 132.231a3.846 3.846 0 11-3.846 3.846 3.846 3.846 0 013.846-3.846" transform="translate(-40.618 -101.958)" fill="#fc442f"/><path id="Path_3864-2" data-name="Path 3864" d="M3.846 96.808A3.846 3.846 0 110 100.654a3.846 3.846 0 013.846-3.846" transform="translate(0 -74.645)" fill="#fc442f"/><path id="Path_3865-2" data-name="Path 3865" d="M56.517 81.32a3.846 3.846 0 11-3.846 3.847 3.847 3.847 0 013.846-3.847" transform="translate(-40.613 -62.703)" fill="#fc442f"/><path id="Path_3866-2" data-name="Path 3866" d="M3.846 160.494A3.846 3.846 0 110 164.34a3.846 3.846 0 013.846-3.846" transform="translate(0 -123.751)" fill="#fc442f"/><path id="Path_3867-2" data-name="Path 3867" d="M220.857 170.273h3.128v13.9a1.352 1.352 0 01-1.353 1.352h-.423a1.352 1.352 0 01-1.353-1.352z" transform="translate(-170.295 -131.291)" fill="#fc442f"/><path id="Path_3868-2" data-name="Path 3868" d="M241.168 109.054a1.353 1.353 0 01-1.353 1.352H222.24a1.352 1.352 0 110-2.7h17.576a1.353 1.353 0 011.353 1.352" transform="translate(-170.318 -83.045)" fill="#fc442f"/><path id="Path_3869-2" data-name="Path 3869" d="M239.161 172.74a1.353 1.353 0 01-1.353 1.353h-15.567a1.352 1.352 0 110-2.7h15.568a1.352 1.352 0 011.353 1.352" transform="translate(-170.318 -132.151)" fill="#fc442f"/><path id="Path_3870-2" data-name="Path 3870" d="M340.018 125.237h-7.857v-14.831h7.857q4.393 0 6.719 1.923a7.626 7.626 0 010 10.964q-2.323 1.946-6.719 1.944m5.41 1.9a9.717 9.717 0 005.005-3.444 9.618 9.618 0 001.754-5.852 9.2 9.2 0 00-3.211-7.437q-3.211-2.7-8.872-2.7h-9.678a1.393 1.393 0 00-1.393 1.393v26.79a1.393 1.393 0 001.393 1.393h.342a1.393 1.393 0 001.393-1.393V127.9h7.939a21.823 21.823 0 002.365-.126l6.346 8.918a1.393 1.393 0 102.27-1.616z" transform="translate(-253.705 -83.044)" fill="#fc442f"/><path id="Path_3871-2" data-name="Path 3871" d="M478.975 127.917a11.446 11.446 0 01-4.438 4.395 13.5 13.5 0 01-12.7 0 11.546 11.546 0 01-4.477-4.395 12.895 12.895 0 010-12.546 11.546 11.546 0 014.477-4.395 13.5 13.5 0 0112.7 0 11.446 11.446 0 014.438 4.395 13.069 13.069 0 010 12.546m2.7-13.985a14.386 14.386 0 00-5.557-5.385 17.125 17.125 0 00-15.886.018 14.354 14.354 0 00-5.579 5.389 15.745 15.745 0 000 15.38 14.325 14.325 0 005.579 5.385 17.113 17.113 0 0015.886.021 14.386 14.386 0 005.557-5.385 15.68 15.68 0 000-15.423" transform="translate(-349.024 -82.198)" fill="#fc442f"/><path id="Path_3872-2" data-name="Path 3872" d="M634.18 127.917a11.465 11.465 0 01-4.437 4.395 13.5 13.5 0 01-12.7 0 11.549 11.549 0 01-4.478-4.395 12.9 12.9 0 010-12.546 11.549 11.549 0 014.478-4.395 13.5 13.5 0 0112.7 0 11.465 11.465 0 014.438 4.395 13.069 13.069 0 010 12.546m2.7-13.985a14.356 14.356 0 00-5.554-5.385 17.125 17.125 0 00-15.886.018 14.349 14.349 0 00-5.579 5.389 15.745 15.745 0 000 15.38 14.321 14.321 0 005.579 5.385 17.112 17.112 0 0015.886.021 14.356 14.356 0 005.554-5.385 15.662 15.662 0 000-15.423" transform="translate(-468.697 -82.198)" fill="#fc442f"/><path id="Path_3873-2" data-name="Path 3873" d="M770.534 110.411h-9.042a1.352 1.352 0 010-2.7H782.7a1.352 1.352 0 010 2.7h-9.04v25.52a1.352 1.352 0 01-1.352 1.352h-.423a1.352 1.352 0 01-1.352-1.352z" transform="translate(-586.116 -83.049)" fill="#fc442f"/><path id="Path_3874-2" data-name="Path 3874" d="M888.512 135.626a12.806 12.806 0 01-3.866-2.05 1.342 1.342 0 011.626-2.133 13.172 13.172 0 003.064 1.585 15.588 15.588 0 005.493.993q3.971 0 5.957-1.458a4.49 4.49 0 001.986-3.781 3.785 3.785 0 00-1.077-2.831 7.287 7.287 0 00-2.641-1.627 42.828 42.828 0 00-4.352-1.246 45.557 45.557 0 01-5.324-1.627 8.727 8.727 0 01-3.4-2.387 6.344 6.344 0 01-1.415-4.352 7.377 7.377 0 011.183-4.077 8.105 8.105 0 013.634-2.936 14.878 14.878 0 016.084-1.1 17.906 17.906 0 014.965.7 15.277 15.277 0 013.159 1.277 1.355 1.355 0 01-1.293 2.382 14.472 14.472 0 00-2.69-1.082 14.844 14.844 0 00-4.141-.613 9.558 9.558 0 00-5.852 1.5 4.653 4.653 0 00-1.964 3.866 3.856 3.856 0 001.077 2.852 7.062 7.062 0 002.7 1.648q1.626.57 4.373 1.246a44.1 44.1 0 015.26 1.584 8.637 8.637 0 013.4 2.366 6.263 6.263 0 011.395 4.289 7.281 7.281 0 01-1.2 4.077 8.1 8.1 0 01-3.7 2.915 15.448 15.448 0 01-6.126 1.077 18.991 18.991 0 01-6.317-1.056" transform="translate(-681.741 -82.195)" fill="#fc442f"/><path id="Path_3875-2" data-name="Path 3875" d="M374.017 286.615v-14.628H190.292a8.822 8.822 0 012.746 11.7 8.674 8.674 0 01-2.739 2.93z" transform="translate(-146.727 -209.719)" fill="#75ae1b"/><path id="Path_3876-2" data-name="Path 3876" d="M400.721 294.545h2.072v-2.6l2.361-4.938h-2.169l-.578 1.576q-.205.568-.241.672-.193.487-.373 1.009h-.048q-.073-.22-.138-.406t-.127-.336l-.325-.939-.578-1.576h-2.217l2.361 4.938zm-6.87-5.958h.747a1.832 1.832 0 01.946.191.722.722 0 01.307.666.893.893 0 01-.319.742 1.469 1.469 0 01-.934.255h-.747zm4.458 5.958l-1.7-2.921a2.375 2.375 0 00.928-.858 2.462 2.462 0 00.337-1.321 2.066 2.066 0 00-.862-1.872 4.1 4.1 0 00-2.271-.562h-2.964v7.534h2.072v-2.527h.8l1.349 2.527zm-13.322 0h5.18v-1.669h-3.108v-1.345h2.554v-1.669h-2.554v-1.182h2.988v-1.669h-5.06zm-4.416.139a3.756 3.756 0 001.632-.33 2.562 2.562 0 001.06-.881 2.118 2.118 0 00.367-1.2 2.086 2.086 0 00-1.53-2.063l-.952-.359q-.338-.116-.614-.232a1.524 1.524 0 01-.41-.232.368.368 0 01-.133-.29.419.419 0 01.217-.377 1.15 1.15 0 01.6-.134 2.3 2.3 0 01.789.134 3.567 3.567 0 01.777.411l1.036-1.252a3.442 3.442 0 00-1.211-.753 4.006 4.006 0 00-1.391-.255 3.5 3.5 0 00-1.5.313 2.546 2.546 0 00-1.042.852 2.023 2.023 0 00-.374 1.176 1.973 1.973 0 00.44 1.3 2.68 2.68 0 001.138.8l.976.394q.313.116.566.226a1.385 1.385 0 01.373.22.368.368 0 01.12.284q0 .533-.891.533a2.422 2.422 0 01-.916-.2 3.946 3.946 0 01-.915-.527l-1.181 1.368a4.221 4.221 0 001.4.806 4.766 4.766 0 001.56.272m-8.107-6.1h.747a1.832 1.832 0 01.946.191.722.722 0 01.307.666.893.893 0 01-.319.742 1.469 1.469 0 01-.934.255h-.747zm4.458 5.958l-1.7-2.921a2.377 2.377 0 00.928-.858 2.462 2.462 0 00.337-1.321 2.066 2.066 0 00-.861-1.872 4.1 4.1 0 00-2.271-.562h-2.964v7.534h2.072v-2.527h.8l1.349 2.527zm-11.5.139a3 3 0 002.422-.922 4.349 4.349 0 00.783-2.857v-3.894h-2v4.126a2.583 2.583 0 01-.289 1.408 1.03 1.03 0 01-.916.423 1 1 0 01-.9-.417 2.67 2.67 0 01-.277-1.414v-4.126h-2.072v3.894a4.28 4.28 0 00.8 2.851 3.066 3.066 0 002.452.927m-11.374-.139h1.976v-2.179a18.549 18.549 0 00-.193-2.26l-.072-.615h.048l.747 1.681 1.735 3.373h2.12v-7.534h-1.976v2.179a20.717 20.717 0 00.2 2.411q.048.336.06.464h-.048l-.747-1.692-1.735-3.361h-2.12zm-8.366 0h2.072v-5.865h2.072v-1.669h-6.216v1.669h2.072zm-9.608 0h1.976v-2.179a18.546 18.546 0 00-.193-2.26l-.072-.615h.048l.747 1.681 1.735 3.373h2.12v-7.534h-1.976v2.179a20.71 20.71 0 00.2 2.411q.048.336.06.464h-.048l-.747-1.692-1.735-3.361h-2.12zm-5.386-3.141l.133-.522q.217-.788.482-2.063l.072-.325h.048l.265 1.089q.157.707.313 1.3l.133.522zm2.2 3.141h2.193l-2.385-7.534h-2.506l-2.385 7.534h2.12l.386-1.6h2.193zm-10.923 0h5.036v-1.669h-2.964v-5.865h-2.072zm-5.207-3.964v-1.994h.7a1.643 1.643 0 01.934.22.8.8 0 01.319.707 1.02 1.02 0 01-.3.788 1.291 1.291 0 01-.9.278zm-2.072 3.964h2.072v-2.388h.843a4.187 4.187 0 001.566-.284 2.514 2.514 0 001.138-.881 2.472 2.472 0 00.428-1.478 2.134 2.134 0 00-.88-1.918 4.086 4.086 0 00-2.3-.585h-2.857zm-7.233.139a4.335 4.335 0 001.506-.261 3.335 3.335 0 001.144-.666v-3.593h-2.977v1.623h1.157v1.043a1.11 1.11 0 01-.6.139 1.972 1.972 0 01-1.542-.562 2.376 2.376 0 01-.506-1.64 2.32 2.32 0 01.518-1.594 1.7 1.7 0 011.337-.585 1.874 1.874 0 01.753.139 2.6 2.6 0 01.645.417l1.084-1.275a3.674 3.674 0 00-1.1-.719 3.631 3.631 0 00-1.452-.278 4.083 4.083 0 00-1.952.475 3.586 3.586 0 00-1.422 1.374 4.519 4.519 0 00-.012 4.225 3.281 3.281 0 001.416 1.3 4.568 4.568 0 002.018.435m-9.118-6.1h.747a1.831 1.831 0 01.946.191.722.722 0 01.307.666.893.893 0 01-.319.742 1.469 1.469 0 01-.934.255h-.747zm4.458 5.958l-1.7-2.921a2.377 2.377 0 00.928-.858 2.463 2.463 0 00.337-1.321 2.066 2.066 0 00-.861-1.872 4.1 4.1 0 00-2.271-.562h-2.964v7.534h2.072v-2.527h.8l1.349 2.527zm-13.322 0h5.18v-1.669h-3.108v-1.345h2.548v-1.669h-2.554v-1.176h2.988v-1.669h-5.06zm-5.442-1.53v-1.6h.843a1.791 1.791 0 01.915.18.636.636 0 01.289.585q0 .834-1.2.835zm0-3.06v-1.414h.7a1.446 1.446 0 01.747.151.542.542 0 01.241.5.688.688 0 01-.247.562 1.148 1.148 0 01-.741.2zm-2.072 4.59h3.06a4.038 4.038 0 002.217-.556 1.852 1.852 0 00.867-1.669 1.714 1.714 0 00-.374-1.147 1.956 1.956 0 00-.976-.614v-.046a1.457 1.457 0 00.711-.643 1.9 1.9 0 00.277-.979 1.51 1.51 0 00-.8-1.455 4.652 4.652 0 00-2.169-.423h-2.819zm-6.3 0h5.034v-1.669h-2.964v-5.865h-2.076zm-6.792 0h5.18v-1.669h-3.114v-1.345h2.554v-1.669h-2.554v-1.176h2.988v-1.669h-5.06zm-7.8 0h2.072v-1.878l.747-1.02 1.735 2.9h2.265l-2.8-4.474 2.337-3.06h-2.265l-1.976 2.8h-.048v-2.8h-2.072zm-4.416.139a3.757 3.757 0 001.633-.33 2.564 2.564 0 001.06-.881 2.119 2.119 0 00.367-1.2 2.086 2.086 0 00-1.53-2.063l-.952-.359q-.337-.116-.614-.232a1.53 1.53 0 01-.41-.232.369.369 0 01-.133-.29.419.419 0 01.217-.377 1.15 1.15 0 01.6-.134 2.3 2.3 0 01.789.134 3.573 3.573 0 01.777.411l1.036-1.252a3.44 3.44 0 00-1.211-.753 4.008 4.008 0 00-1.392-.255 3.5 3.5 0 00-1.5.313 2.546 2.546 0 00-1.042.852 2.023 2.023 0 00-.373 1.176 1.972 1.972 0 00.44 1.3 2.678 2.678 0 001.139.8l.976.394q.313.116.566.226a1.388 1.388 0 01.374.22.368.368 0 01.12.284q0 .533-.892.533a2.423 2.423 0 01-.916-.2 3.955 3.955 0 01-.915-.527l-1.181 1.368a4.217 4.217 0 001.4.806 4.765 4.765 0 001.56.272m-8-3.28l.133-.522q.217-.788.482-2.063l.072-.325h.048l.265 1.089q.156.707.313 1.3l.133.522zm2.2 3.141h2.193l-2.385-7.534h-2.499l-2.385 7.534h2.12l.386-1.6h2.193zm-12.548 0h2.072v-2.99h2.337v2.99h2.072v-7.534h-2.072v2.8h-2.337v-2.8h-2.065z" transform="translate(-183.752 -221.196)" fill="#fff"/></g></g></g><g id="_2" data-name="2" transform="translate(26 566.231)"><g id="Logo_english_CMYK-4" data-name="Logo english CMYK" transform="translate(1298.5 219.148)"><g id="Group_607-3" data-name="Group 607" transform="translate(-113.645 -41.38)"><path id="Line_346-3" data-name="Line 346" fill="none" stroke="#75ae1b" stroke-linecap="round" stroke-width="2.289" d="M31.697 39.162l3.012-1.895"/><path id="Line_347-3" data-name="Line 347" fill="none" stroke="#75ae1b" stroke-linecap="round" stroke-width="2.289" d="M24.364 39.162l-3.012-1.895"/><path id="Line_348-3" data-name="Line 348" fill="none" stroke="#75ae1b" stroke-linecap="round" stroke-width="2.289" d="M28.031 24.196v12.559"/><path id="Path_3853-3" data-name="Path 3853" d="M109.482 60.827a3.846 3.846 0 11-3.846 3.846 3.846 3.846 0 013.846-3.846" transform="translate(-81.452 -46.901)" fill="#fc442f"/><path id="Path_3854-3" data-name="Path 3854" d="M109.482 0a3.846 3.846 0 11-3.846 3.846A3.846 3.846 0 01109.482 0" transform="translate(-81.452)" fill="#fc442f"/><path id="Path_3855-3" data-name="Path 3855" d="M56.811 30.41a3.846 3.846 0 11-3.846 3.846 3.846 3.846 0 013.846-3.846" transform="translate(-40.839 -23.448)" fill="#fc442f"/><path id="Path_3856-3" data-name="Path 3856" d="M162.153 30.41a3.846 3.846 0 11-3.846 3.846 3.846 3.846 0 013.846-3.846" transform="translate(-122.065 -23.448)" fill="#fc442f"/><circle id="Ellipse_1277-3" data-name="Ellipse 1277" cx="3.846" cy="3.846" transform="rotate(-73.155 55.539 16.937)" fill="none" stroke="#75ae1b" stroke-width="2.289" r="3.846"/><circle id="Ellipse_1278-3" data-name="Ellipse 1278" cx="3.846" cy="3.846" transform="rotate(-73.155 65.879 24.61)" fill="none" stroke="#75ae1b" stroke-width="2.289" r="3.846"/><path id="Line_349-3" data-name="Line 349" fill="none" stroke="#75ae1b" stroke-width="2.289" d="M28.027 75.081v-9.538"/><path id="Path_3857-3" data-name="Path 3857" d="M36.757 67.659a3.846 3.846 0 111.408 5.254 3.846 3.846 0 01-1.408-5.254z" fill="none" stroke="#75ae1b" stroke-width="2.289"/><path id="Line_350-3" data-name="Line 350" fill="none" stroke="#75ae1b" stroke-width="2.289" d="M37.643 68.251l-7.001-4.197"/><path id="Path_3858-3" data-name="Path 3858" d="M19.303 67.658a3.846 3.846 0 11-5.254-1.408 3.847 3.847 0 015.254 1.408z" fill="none" stroke="#75ae1b" stroke-width="2.289"/><path id="Line_351-3" data-name="Line 351" fill="none" stroke="#75ae1b" stroke-width="2.289" d="M18.415 68.246l6.832-4.101"/><circle id="Ellipse_1279-3" data-name="Ellipse 1279" cx="3.846" cy="3.846" r="3.846" transform="rotate(-80.783 37.82 8.25)" fill="none" stroke="#75ae1b" stroke-width="2.289"/><path id="Path_3859-3" data-name="Path 3859" d="M158.723 138a3.846 3.846 0 115.254 1.408 3.847 3.847 0 01-5.254-1.408" transform="translate(-121.988 -101.957)" fill="#fc442f"/><path id="Path_3860-3" data-name="Path 3860" d="M214.734 96.808a3.846 3.846 0 11-3.846 3.846 3.846 3.846 0 013.846-3.846" transform="translate(-162.608 -74.645)" fill="#fc442f"/><path id="Path_3861-3" data-name="Path 3861" d="M162.063 89.013a3.846 3.846 0 113.846-3.846 3.846 3.846 0 01-3.846 3.846" transform="translate(-121.995 -62.703)" fill="#fc442f"/><path id="Path_3862-3" data-name="Path 3862" d="M214.734 160.494a3.846 3.846 0 11-3.846 3.846 3.846 3.846 0 013.846-3.846" transform="translate(-162.608 -123.751)" fill="#fc442f"/><path id="Line_352-3" data-name="Line 352" fill="none" stroke="#75ae1b" stroke-width="2.289" d="M28.031 44.599V59.85"/><path id="Path_3863-3" data-name="Path 3863" d="M56.524 132.231a3.846 3.846 0 11-3.846 3.846 3.846 3.846 0 013.846-3.846" transform="translate(-40.618 -101.958)" fill="#fc442f"/><path id="Path_3864-3" data-name="Path 3864" d="M3.846 96.808A3.846 3.846 0 110 100.654a3.846 3.846 0 013.846-3.846" transform="translate(0 -74.645)" fill="#fc442f"/><path id="Path_3865-3" data-name="Path 3865" d="M56.517 81.32a3.846 3.846 0 11-3.846 3.847 3.847 3.847 0 013.846-3.847" transform="translate(-40.613 -62.703)" fill="#fc442f"/><path id="Path_3866-3" data-name="Path 3866" d="M3.846 160.494A3.846 3.846 0 110 164.34a3.846 3.846 0 013.846-3.846" transform="translate(0 -123.751)" fill="#fc442f"/><path id="Path_3867-3" data-name="Path 3867" d="M220.857 170.273h3.128v13.9a1.352 1.352 0 01-1.353 1.352h-.423a1.352 1.352 0 01-1.353-1.352z" transform="translate(-170.295 -131.291)" fill="#fc442f"/><path id="Path_3868-3" data-name="Path 3868" d="M241.168 109.054a1.353 1.353 0 01-1.353 1.352H222.24a1.352 1.352 0 110-2.7h17.576a1.353 1.353 0 011.353 1.352" transform="translate(-170.318 -83.045)" fill="#fc442f"/><path id="Path_3869-3" data-name="Path 3869" d="M239.161 172.74a1.353 1.353 0 01-1.353 1.353h-15.567a1.352 1.352 0 110-2.7h15.568a1.352 1.352 0 011.353 1.352" transform="translate(-170.318 -132.151)" fill="#fc442f"/><path id="Path_3870-3" data-name="Path 3870" d="M340.018 125.237h-7.857v-14.831h7.857q4.393 0 6.719 1.923a7.626 7.626 0 010 10.964q-2.323 1.946-6.719 1.944m5.41 1.9a9.717 9.717 0 005.005-3.444 9.618 9.618 0 001.754-5.852 9.2 9.2 0 00-3.211-7.437q-3.211-2.7-8.872-2.7h-9.678a1.393 1.393 0 00-1.393 1.393v26.79a1.393 1.393 0 001.393 1.393h.342a1.393 1.393 0 001.393-1.393V127.9h7.939a21.823 21.823 0 002.365-.126l6.346 8.918a1.393 1.393 0 102.27-1.616z" transform="translate(-253.705 -83.044)" fill="#fc442f"/><path id="Path_3871-3" data-name="Path 3871" d="M478.975 127.917a11.446 11.446 0 01-4.438 4.395 13.5 13.5 0 01-12.7 0 11.546 11.546 0 01-4.477-4.395 12.895 12.895 0 010-12.546 11.546 11.546 0 014.477-4.395 13.5 13.5 0 0112.7 0 11.446 11.446 0 014.438 4.395 13.069 13.069 0 010 12.546m2.7-13.985a14.386 14.386 0 00-5.557-5.385 17.125 17.125 0 00-15.886.018 14.354 14.354 0 00-5.579 5.389 15.745 15.745 0 000 15.38 14.325 14.325 0 005.579 5.385 17.113 17.113 0 0015.886.021 14.386 14.386 0 005.557-5.385 15.68 15.68 0 000-15.423" transform="translate(-349.024 -82.198)" fill="#fc442f"/><path id="Path_3872-3" data-name="Path 3872" d="M634.18 127.917a11.465 11.465 0 01-4.437 4.395 13.5 13.5 0 01-12.7 0 11.549 11.549 0 01-4.478-4.395 12.9 12.9 0 010-12.546 11.549 11.549 0 014.478-4.395 13.5 13.5 0 0112.7 0 11.465 11.465 0 014.438 4.395 13.069 13.069 0 010 12.546m2.7-13.985a14.356 14.356 0 00-5.554-5.385 17.125 17.125 0 00-15.886.018 14.349 14.349 0 00-5.579 5.389 15.745 15.745 0 000 15.38 14.321 14.321 0 005.579 5.385 17.112 17.112 0 0015.886.021 14.356 14.356 0 005.554-5.385 15.662 15.662 0 000-15.423" transform="translate(-468.697 -82.198)" fill="#fc442f"/><path id="Path_3873-3" data-name="Path 3873" d="M770.534 110.411h-9.042a1.352 1.352 0 010-2.7H782.7a1.352 1.352 0 010 2.7h-9.04v25.52a1.352 1.352 0 01-1.352 1.352h-.423a1.352 1.352 0 01-1.352-1.352z" transform="translate(-586.116 -83.049)" fill="#fc442f"/><path id="Path_3874-3" data-name="Path 3874" d="M888.512 135.626a12.806 12.806 0 01-3.866-2.05 1.342 1.342 0 011.626-2.133 13.172 13.172 0 003.064 1.585 15.588 15.588 0 005.493.993q3.971 0 5.957-1.458a4.49 4.49 0 001.986-3.781 3.785 3.785 0 00-1.077-2.831 7.287 7.287 0 00-2.641-1.627 42.828 42.828 0 00-4.352-1.246 45.557 45.557 0 01-5.324-1.627 8.727 8.727 0 01-3.4-2.387 6.344 6.344 0 01-1.415-4.352 7.377 7.377 0 011.183-4.077 8.105 8.105 0 013.634-2.936 14.878 14.878 0 016.084-1.1 17.906 17.906 0 014.965.7 15.277 15.277 0 013.159 1.277 1.355 1.355 0 01-1.293 2.382 14.472 14.472 0 00-2.69-1.082 14.844 14.844 0 00-4.141-.613 9.558 9.558 0 00-5.852 1.5 4.653 4.653 0 00-1.964 3.866 3.856 3.856 0 001.077 2.852 7.062 7.062 0 002.7 1.648q1.626.57 4.373 1.246a44.1 44.1 0 015.26 1.584 8.637 8.637 0 013.4 2.366 6.263 6.263 0 011.395 4.289 7.281 7.281 0 01-1.2 4.077 8.1 8.1 0 01-3.7 2.915 15.448 15.448 0 01-6.126 1.077 18.991 18.991 0 01-6.317-1.056" transform="translate(-681.741 -82.195)" fill="#fc442f"/><path id="Path_3875-3" data-name="Path 3875" d="M374.017 286.615v-14.628H190.292a8.822 8.822 0 012.746 11.7 8.674 8.674 0 01-2.739 2.93z" transform="translate(-146.727 -209.719)" fill="#75ae1b"/><path id="Path_3876-3" data-name="Path 3876" d="M400.721 294.545h2.072v-2.6l2.361-4.938h-2.169l-.578 1.576q-.205.568-.241.672-.193.487-.373 1.009h-.048q-.073-.22-.138-.406t-.127-.336l-.325-.939-.578-1.576h-2.217l2.361 4.938zm-6.87-5.958h.747a1.832 1.832 0 01.946.191.722.722 0 01.307.666.893.893 0 01-.319.742 1.469 1.469 0 01-.934.255h-.747zm4.458 5.958l-1.7-2.921a2.375 2.375 0 00.928-.858 2.462 2.462 0 00.337-1.321 2.066 2.066 0 00-.862-1.872 4.1 4.1 0 00-2.271-.562h-2.964v7.534h2.072v-2.527h.8l1.349 2.527zm-13.322 0h5.18v-1.669h-3.108v-1.345h2.554v-1.669h-2.554v-1.182h2.988v-1.669h-5.06zm-4.416.139a3.756 3.756 0 001.632-.33 2.562 2.562 0 001.06-.881 2.118 2.118 0 00.367-1.2 2.086 2.086 0 00-1.53-2.063l-.952-.359q-.338-.116-.614-.232a1.524 1.524 0 01-.41-.232.368.368 0 01-.133-.29.419.419 0 01.217-.377 1.15 1.15 0 01.6-.134 2.3 2.3 0 01.789.134 3.567 3.567 0 01.777.411l1.036-1.252a3.442 3.442 0 00-1.211-.753 4.006 4.006 0 00-1.391-.255 3.5 3.5 0 00-1.5.313 2.546 2.546 0 00-1.042.852 2.023 2.023 0 00-.374 1.176 1.973 1.973 0 00.44 1.3 2.68 2.68 0 001.138.8l.976.394q.313.116.566.226a1.385 1.385 0 01.373.22.368.368 0 01.12.284q0 .533-.891.533a2.422 2.422 0 01-.916-.2 3.946 3.946 0 01-.915-.527l-1.181 1.368a4.221 4.221 0 001.4.806 4.766 4.766 0 001.56.272m-8.107-6.1h.747a1.832 1.832 0 01.946.191.722.722 0 01.307.666.893.893 0 01-.319.742 1.469 1.469 0 01-.934.255h-.747zm4.458 5.958l-1.7-2.921a2.377 2.377 0 00.928-.858 2.462 2.462 0 00.337-1.321 2.066 2.066 0 00-.861-1.872 4.1 4.1 0 00-2.271-.562h-2.964v7.534h2.072v-2.527h.8l1.349 2.527zm-11.5.139a3 3 0 002.422-.922 4.349 4.349 0 00.783-2.857v-3.894h-2v4.126a2.583 2.583 0 01-.289 1.408 1.03 1.03 0 01-.916.423 1 1 0 01-.9-.417 2.67 2.67 0 01-.277-1.414v-4.126h-2.072v3.894a4.28 4.28 0 00.8 2.851 3.066 3.066 0 002.452.927m-11.374-.139h1.976v-2.179a18.549 18.549 0 00-.193-2.26l-.072-.615h.048l.747 1.681 1.735 3.373h2.12v-7.534h-1.976v2.179a20.717 20.717 0 00.2 2.411q.048.336.06.464h-.048l-.747-1.692-1.735-3.361h-2.12zm-8.366 0h2.072v-5.865h2.072v-1.669h-6.216v1.669h2.072zm-9.608 0h1.976v-2.179a18.546 18.546 0 00-.193-2.26l-.072-.615h.048l.747 1.681 1.735 3.373h2.12v-7.534h-1.976v2.179a20.71 20.71 0 00.2 2.411q.048.336.06.464h-.048l-.747-1.692-1.735-3.361h-2.12zm-5.386-3.141l.133-.522q.217-.788.482-2.063l.072-.325h.048l.265 1.089q.157.707.313 1.3l.133.522zm2.2 3.141h2.193l-2.385-7.534h-2.506l-2.385 7.534h2.12l.386-1.6h2.193zm-10.923 0h5.036v-1.669h-2.964v-5.865h-2.072zm-5.207-3.964v-1.994h.7a1.643 1.643 0 01.934.22.8.8 0 01.319.707 1.02 1.02 0 01-.3.788 1.291 1.291 0 01-.9.278zm-2.072 3.964h2.072v-2.388h.843a4.187 4.187 0 001.566-.284 2.514 2.514 0 001.138-.881 2.472 2.472 0 00.428-1.478 2.134 2.134 0 00-.88-1.918 4.086 4.086 0 00-2.3-.585h-2.857zm-7.233.139a4.335 4.335 0 001.506-.261 3.335 3.335 0 001.144-.666v-3.593h-2.977v1.623h1.157v1.043a1.11 1.11 0 01-.6.139 1.972 1.972 0 01-1.542-.562 2.376 2.376 0 01-.506-1.64 2.32 2.32 0 01.518-1.594 1.7 1.7 0 011.337-.585 1.874 1.874 0 01.753.139 2.6 2.6 0 01.645.417l1.084-1.275a3.674 3.674 0 00-1.1-.719 3.631 3.631 0 00-1.452-.278 4.083 4.083 0 00-1.952.475 3.586 3.586 0 00-1.422 1.374 4.519 4.519 0 00-.012 4.225 3.281 3.281 0 001.416 1.3 4.568 4.568 0 002.018.435m-9.118-6.1h.747a1.831 1.831 0 01.946.191.722.722 0 01.307.666.893.893 0 01-.319.742 1.469 1.469 0 01-.934.255h-.747zm4.458 5.958l-1.7-2.921a2.377 2.377 0 00.928-.858 2.463 2.463 0 00.337-1.321 2.066 2.066 0 00-.861-1.872 4.1 4.1 0 00-2.271-.562h-2.964v7.534h2.072v-2.527h.8l1.349 2.527zm-13.322 0h5.18v-1.669h-3.108v-1.345h2.548v-1.669h-2.554v-1.176h2.988v-1.669h-5.06zm-5.442-1.53v-1.6h.843a1.791 1.791 0 01.915.18.636.636 0 01.289.585q0 .834-1.2.835zm0-3.06v-1.414h.7a1.446 1.446 0 01.747.151.542.542 0 01.241.5.688.688 0 01-.247.562 1.148 1.148 0 01-.741.2zm-2.072 4.59h3.06a4.038 4.038 0 002.217-.556 1.852 1.852 0 00.867-1.669 1.714 1.714 0 00-.374-1.147 1.956 1.956 0 00-.976-.614v-.046a1.457 1.457 0 00.711-.643 1.9 1.9 0 00.277-.979 1.51 1.51 0 00-.8-1.455 4.652 4.652 0 00-2.169-.423h-2.819zm-6.3 0h5.034v-1.669h-2.964v-5.865h-2.076zm-6.792 0h5.18v-1.669h-3.114v-1.345h2.554v-1.669h-2.554v-1.176h2.988v-1.669h-5.06zm-7.8 0h2.072v-1.878l.747-1.02 1.735 2.9h2.265l-2.8-4.474 2.337-3.06h-2.265l-1.976 2.8h-.048v-2.8h-2.072zm-4.416.139a3.757 3.757 0 001.633-.33 2.564 2.564 0 001.06-.881 2.119 2.119 0 00.367-1.2 2.086 2.086 0 00-1.53-2.063l-.952-.359q-.337-.116-.614-.232a1.53 1.53 0 01-.41-.232.369.369 0 01-.133-.29.419.419 0 01.217-.377 1.15 1.15 0 01.6-.134 2.3 2.3 0 01.789.134 3.573 3.573 0 01.777.411l1.036-1.252a3.44 3.44 0 00-1.211-.753 4.008 4.008 0 00-1.392-.255 3.5 3.5 0 00-1.5.313 2.546 2.546 0 00-1.042.852 2.023 2.023 0 00-.373 1.176 1.972 1.972 0 00.44 1.3 2.678 2.678 0 001.139.8l.976.394q.313.116.566.226a1.388 1.388 0 01.374.22.368.368 0 01.12.284q0 .533-.892.533a2.423 2.423 0 01-.916-.2 3.955 3.955 0 01-.915-.527l-1.181 1.368a4.217 4.217 0 001.4.806 4.765 4.765 0 001.56.272m-8-3.28l.133-.522q.217-.788.482-2.063l.072-.325h.048l.265 1.089q.156.707.313 1.3l.133.522zm2.2 3.141h2.193l-2.385-7.534h-2.499l-2.385 7.534h2.12l.386-1.6h2.193zm-12.548 0h2.072v-2.99h2.337v2.99h2.072v-7.534h-2.072v2.8h-2.337v-2.8h-2.065z" transform="translate(-183.752 -221.196)" fill="#fff"/></g></g></g><path id="Rectangle_170" data-name="Rectangle 170" transform="translate(913 575.768)" fill="#fff" d="M0 0h808v374.232H0z"/></g></g></svg>