<svg xmlns="http://www.w3.org/2000/svg" width="58.402" height="57.236"><path id="Union_1" data-name="Union 1" d="M5.055 46.558l.513-2.255A27.391 27.391 0 018.045 9.565a29.249 29.249 0 0140.547-1.72 27.433 27.433 0 011.767 39.48 29.273 29.273 0 01-35.326 5.424l-2.262.694-9.98 3.061zm24.093 5.885c13.121 0 23.849-9.991 24.6-22.584 0-.053.007-.106.01-.159 0-.073.006-.146.009-.219.005-.128.012-.255.015-.383v-1.183c0-.105-.007-.227-.011-.34 0-.077-.005-.154-.009-.231a19.418 19.418 0 00-.024-.417c0-.047-.006-.094-.009-.142q-.018-.249-.04-.5v-.049C52.543 14.021 41.989 4.45 29.151 4.45c-13.61.004-24.645 10.754-24.645 23.999a23.478 23.478 0 004.928 14.4l-.024.1-.592 2.611-.192.845-1.168 5.145 5.163-1.581 1.722-.527 1.866-.571a25.012 25.012 0 0012.939 3.573zm6.542-10.089c-8.222.774-20.8-11.957-20.037-20.07a6.852 6.852 0 011.574-5.337 8.066 8.066 0 012.187-1.978c2.538-.921 3.263.268 3.263.268s2.125 5.509 2.391 6.376-1.2 2.625-1.956 3.075-.354 1.394-.354 1.394c.841 2.128 6.381 8.073 8.469 9.091 0 0 .924.483 1.457-.209s2.468-1.941 3.329-1.6c1.455.577 5.905 2.007 6.581 3.315.231.448.4 1.322-.34 2.8a6.749 6.749 0 01-5.755 2.9 6.46 6.46 0 01-.808-.024z" fill="#fc3" stroke="rgba(0,0,0,0)" stroke-miterlimit="10" stroke-width="1"/></svg>