<svg xmlns="http://www.w3.org/2000/svg" width="35" height="35" viewBox="0 0 35 35">
  <g id="Group_130" data-name="Group 130" transform="translate(-1292 -4547)">
    <g id="Ellipse_15" data-name="Ellipse 15" transform="translate(1292 4547)" fill="none" stroke="#fc3" stroke-width="1">
      <circle cx="17.5" cy="17.5" r="17.5" stroke="none"/>
      <circle cx="17.5" cy="17.5" r="17" fill="none"/>
    </g>
    <path id="Path_1164" data-name="Path 1164" d="M23.549,6.061V8.924a.377.377,0,0,1-.01.146.215.215,0,0,1-.132.015q-.772,0-1.547,0c-.13,0-.262,0-.392.007a2.839,2.839,0,0,0-.8.156,1.849,1.849,0,0,0-1.188,1.261,2.6,2.6,0,0,0-.114.763q0,1.335,0,2.674a.17.17,0,0,0,.01.092c.021.024.049.017.075.017h3.773a.367.367,0,0,1,.151.014c-.009.071-.016.137-.028.2-.2,1.315-.4,2.634-.607,3.943a.166.166,0,0,1-.125.024H19.4c-.039.025-.031.054-.031.08V30.243H14.838V18.255a.323.323,0,0,0-.154-.017H11.19c-.031-.026-.021-.057-.024-.082v-4.08a.269.269,0,0,1,.14-.019h3.505a.108.108,0,0,0,.027-.1V10.868c0-.282.016-.56.042-.837a6.647,6.647,0,0,1,.2-1.093,5.137,5.137,0,0,1,.768-1.666c.024-.033.047-.066.073-.1a4.484,4.484,0,0,1,1.772-1.415,5.524,5.524,0,0,1,1.358-.414,7.945,7.945,0,0,1,1.4-.106c.3,0,.6.017.9.035.352.022.7.054,1.053.094.239.026.475.057.711.09l.218.028c.066.01.132.024.191.033.03.026.024.054.026.08Z" transform="translate(1291.834 4546.76)" fill="#fc3"/>
  </g>
</svg>
