<svg xmlns="http://www.w3.org/2000/svg" xmlns:xlink="http://www.w3.org/1999/xlink" width="35" height="35" viewBox="0 0 35 35">
  <defs>
    <clipPath id="clip-path">
      <rect id="Rectangle_52" data-name="Rectangle 52" width="21.081" height="20.798" transform="translate(0 0)" fill="#fc3"/>
    </clipPath>
  </defs>
  <g id="Group_129" data-name="Group 129" transform="translate(-1358 -4547)">
    <g id="Ellipse_16" data-name="Ellipse 16" transform="translate(1358 4547)" fill="none" stroke="#fc3" stroke-width="1">
      <circle cx="17.5" cy="17.5" r="17.5" stroke="none"/>
      <circle cx="17.5" cy="17.5" r="17" fill="none"/>
    </g>
    <g id="Group_128" data-name="Group 128" transform="translate(1365 4554)">
      <g id="Group_127" data-name="Group 127" clip-path="url(#clip-path)">
        <path id="Path_1165" data-name="Path 1165" d="M4.065.312a2.357,2.357,0,0,1,.952.864,2.322,2.322,0,0,1,.344,1.255A2.392,2.392,0,0,1,5.024,3.7a2.307,2.307,0,0,1-.952.864,3.028,3.028,0,0,1-1.385.31A3.018,3.018,0,0,1,1.3,4.565,2.316,2.316,0,0,1,0,2.431,2.33,2.33,0,0,1,.344,1.176,2.363,2.363,0,0,1,1.3.312,3.018,3.018,0,0,1,2.687,0,2.984,2.984,0,0,1,4.065.312M.284,6.186H5.146V20.8H.284Z" fill="#fc3"/>
        <path id="Path_1166" data-name="Path 1166" d="M19.879,7.266q1.2,1.35,1.2,4.457V20.8H16.219V11.71a2.608,2.608,0,0,0-.223-1.2,1.124,1.124,0,0,0-.634-.561,3.472,3.472,0,0,0-1.088-.141,2,2,0,0,0-1.755.81V20.8H7.671V6.186h4.537l.162,1.688a4.915,4.915,0,0,1,1.8-1.458,5.42,5.42,0,0,1,2.35-.5,4.268,4.268,0,0,1,3.363,1.35" fill="#fc3"/>
      </g>
    </g>
  </g>
</svg>
