<svg xmlns="http://www.w3.org/2000/svg" width="227.29" height="84.187" viewBox="0 0 227.29 84.187">
  <g id="Logo_english_CMYK" data-name="Logo english CMYK" transform="translate(113.645 41.38)">
    <g id="Group_1002" data-name="Group 1002" transform="translate(-113.645 -41.38)">
      <line id="Line_353" data-name="Line 353" y1="1.895" x2="3.012" transform="translate(31.697 37.267)" fill="none" stroke="#75ae1b" stroke-linecap="round" stroke-width="2.289"/>
      <line id="Line_354" data-name="Line 354" x1="3.012" y1="1.895" transform="translate(21.352 37.267)" fill="none" stroke="#75ae1b" stroke-linecap="round" stroke-width="2.289"/>
      <line id="Line_355" data-name="Line 355" y2="12.559" transform="translate(28.031 24.196)" fill="none" stroke="#75ae1b" stroke-linecap="round" stroke-width="2.289"/>
      <path id="Path_11705" data-name="Path 11705" d="M109.482,60.827a3.846,3.846,0,1,1-3.846,3.846,3.846,3.846,0,0,1,3.846-3.846" transform="translate(-81.452 -46.901)" fill="#fc442f"/>
      <path id="Path_11706" data-name="Path 11706" d="M109.482,0a3.846,3.846,0,1,1-3.846,3.846A3.846,3.846,0,0,1,109.482,0" transform="translate(-81.452)" fill="#fc442f"/>
      <path id="Path_11707" data-name="Path 11707" d="M56.811,30.41a3.846,3.846,0,1,1-3.846,3.846,3.846,3.846,0,0,1,3.846-3.846" transform="translate(-40.839 -23.448)" fill="#fc442f"/>
      <path id="Path_11708" data-name="Path 11708" d="M162.153,30.41a3.846,3.846,0,1,1-3.846,3.846,3.846,3.846,0,0,1,3.846-3.846" transform="translate(-122.065 -23.448)" fill="#fc442f"/>
      <ellipse id="Ellipse_1280" data-name="Ellipse 1280" cx="3.846" cy="3.846" rx="3.846" ry="3.846" transform="translate(23.234 65.185) rotate(-73.155)" fill="none" stroke="#75ae1b" stroke-width="2.289"/>
      <ellipse id="Ellipse_1281" data-name="Ellipse 1281" cx="3.846" cy="3.846" rx="3.846" ry="3.846" transform="translate(23.234 80.531) rotate(-73.155)" fill="none" stroke="#75ae1b" stroke-width="2.289"/>
      <line id="Line_356" data-name="Line 356" y1="9.538" transform="translate(28.027 65.543)" fill="none" stroke="#75ae1b" stroke-width="2.289"/>
      <path id="Path_11709" data-name="Path 11709" d="M158.82,289.055a3.846,3.846,0,1,1,1.408,5.254A3.846,3.846,0,0,1,158.82,289.055Z" transform="translate(-122.063 -221.396)" fill="none" stroke="#75ae1b" stroke-width="2.289"/>
      <line id="Line_357" data-name="Line 357" x1="7.001" y1="4.197" transform="translate(30.642 64.054)" fill="none" stroke="#75ae1b" stroke-width="2.289"/>
      <path id="Path_11710" data-name="Path 11710" d="M60.14,289.054a3.846,3.846,0,1,1-5.254-1.408A3.847,3.847,0,0,1,60.14,289.054Z" transform="translate(-40.837 -221.396)" fill="none" stroke="#75ae1b" stroke-width="2.289"/>
      <line id="Line_358" data-name="Line 358" y1="4.101" x2="6.832" transform="translate(18.415 64.145)" fill="none" stroke="#75ae1b" stroke-width="2.289"/>
      <circle id="Ellipse_1282" data-name="Ellipse 1282" cx="3.846" cy="3.846" r="3.846" transform="translate(23.618 44.261) rotate(-80.783)" fill="none" stroke="#75ae1b" stroke-width="2.289"/>
      <path id="Path_11711" data-name="Path 11711" d="M158.723,138a3.846,3.846,0,1,1,5.254,1.408A3.847,3.847,0,0,1,158.723,138" transform="translate(-121.988 -101.957)" fill="#fc442f"/>
      <path id="Path_11712" data-name="Path 11712" d="M214.734,96.808a3.846,3.846,0,1,1-3.846,3.846,3.846,3.846,0,0,1,3.846-3.846" transform="translate(-162.608 -74.645)" fill="#fc442f"/>
      <path id="Path_11713" data-name="Path 11713" d="M162.063,89.013a3.846,3.846,0,1,1,3.846-3.846,3.846,3.846,0,0,1-3.846,3.846" transform="translate(-121.995 -62.703)" fill="#fc442f"/>
      <path id="Path_11714" data-name="Path 11714" d="M214.734,160.494a3.846,3.846,0,1,1-3.846,3.846,3.846,3.846,0,0,1,3.846-3.846" transform="translate(-162.608 -123.751)" fill="#fc442f"/>
      <line id="Line_359" data-name="Line 359" y2="15.251" transform="translate(28.031 44.599)" fill="none" stroke="#75ae1b" stroke-width="2.289"/>
      <path id="Path_11715" data-name="Path 11715" d="M56.524,132.231a3.846,3.846,0,1,1-3.846,3.846,3.846,3.846,0,0,1,3.846-3.846" transform="translate(-40.618 -101.958)" fill="#fc442f"/>
      <path id="Path_11716" data-name="Path 11716" d="M3.846,96.808A3.846,3.846,0,1,1,0,100.654a3.846,3.846,0,0,1,3.846-3.846" transform="translate(0 -74.645)" fill="#fc442f"/>
      <path id="Path_11717" data-name="Path 11717" d="M56.517,81.32a3.846,3.846,0,1,1-3.846,3.847,3.847,3.847,0,0,1,3.846-3.847" transform="translate(-40.613 -62.703)" fill="#fc442f"/>
      <path id="Path_11718" data-name="Path 11718" d="M3.846,160.494A3.846,3.846,0,1,1,0,164.34a3.846,3.846,0,0,1,3.846-3.846" transform="translate(0 -123.751)" fill="#fc442f"/>
      <path id="Path_11719" data-name="Path 11719" d="M220.857,170.273h3.128v13.9a1.352,1.352,0,0,1-1.353,1.352h-.423a1.352,1.352,0,0,1-1.353-1.352Z" transform="translate(-170.295 -131.291)" fill="#fc442f"/>
      <path id="Path_11720" data-name="Path 11720" d="M241.168,109.054h0a1.353,1.353,0,0,1-1.353,1.352H222.24a1.352,1.352,0,1,1,0-2.7h17.576a1.353,1.353,0,0,1,1.353,1.352" transform="translate(-170.318 -83.045)" fill="#fc442f"/>
      <path id="Path_11721" data-name="Path 11721" d="M239.161,172.74h0a1.353,1.353,0,0,1-1.353,1.353H222.241a1.352,1.352,0,1,1,0-2.7h15.568a1.352,1.352,0,0,1,1.353,1.352" transform="translate(-170.318 -132.151)" fill="#fc442f"/>
      <path id="Path_11722" data-name="Path 11722" d="M340.018,125.237h-7.857V110.406h7.857q4.393,0,6.719,1.923a7.626,7.626,0,0,1,0,10.964q-2.323,1.946-6.719,1.944m5.41,1.9a9.717,9.717,0,0,0,5.005-3.444,9.618,9.618,0,0,0,1.754-5.852,9.2,9.2,0,0,0-3.211-7.437q-3.211-2.7-8.872-2.7h-9.678a1.393,1.393,0,0,0-1.393,1.393v26.79a1.393,1.393,0,0,0,1.393,1.393h.342a1.393,1.393,0,0,0,1.393-1.393V127.9H340.1a21.823,21.823,0,0,0,2.365-.126l6.346,8.918a1.393,1.393,0,1,0,2.27-1.616Z" transform="translate(-253.705 -83.044)" fill="#fc442f"/>
      <path id="Path_11723" data-name="Path 11723" d="M478.975,127.917a11.446,11.446,0,0,1-4.438,4.395,13.5,13.5,0,0,1-12.7,0,11.546,11.546,0,0,1-4.477-4.395,12.895,12.895,0,0,1,0-12.546,11.546,11.546,0,0,1,4.477-4.395,13.5,13.5,0,0,1,12.7,0,11.446,11.446,0,0,1,4.438,4.395,13.069,13.069,0,0,1,0,12.546m2.7-13.985a14.386,14.386,0,0,0-5.557-5.385,17.125,17.125,0,0,0-15.886.018,14.354,14.354,0,0,0-5.579,5.389,15.745,15.745,0,0,0,0,15.38,14.325,14.325,0,0,0,5.579,5.385,17.113,17.113,0,0,0,15.886.021,14.386,14.386,0,0,0,5.557-5.385,15.68,15.68,0,0,0,0-15.423" transform="translate(-349.024 -82.198)" fill="#fc442f"/>
      <path id="Path_11724" data-name="Path 11724" d="M634.18,127.917a11.465,11.465,0,0,1-4.437,4.395,13.5,13.5,0,0,1-12.7,0,11.549,11.549,0,0,1-4.478-4.395,12.9,12.9,0,0,1,0-12.546,11.549,11.549,0,0,1,4.478-4.395,13.5,13.5,0,0,1,12.7,0,11.465,11.465,0,0,1,4.438,4.395,13.069,13.069,0,0,1,0,12.546m2.7-13.985a14.356,14.356,0,0,0-5.554-5.385,17.125,17.125,0,0,0-15.886.018,14.349,14.349,0,0,0-5.579,5.389,15.745,15.745,0,0,0,0,15.38,14.321,14.321,0,0,0,5.579,5.385,17.112,17.112,0,0,0,15.886.021,14.356,14.356,0,0,0,5.554-5.385,15.662,15.662,0,0,0,0-15.423" transform="translate(-468.697 -82.198)" fill="#fc442f"/>
      <path id="Path_11725" data-name="Path 11725" d="M770.534,110.411h-9.042a1.352,1.352,0,0,1,0-2.7H782.7a1.352,1.352,0,0,1,0,2.7H773.66v25.52a1.352,1.352,0,0,1-1.352,1.352h-.423a1.352,1.352,0,0,1-1.352-1.352Z" transform="translate(-586.116 -83.049)" fill="#fc442f"/>
      <path id="Path_11726" data-name="Path 11726" d="M888.512,135.626a12.806,12.806,0,0,1-3.866-2.05,1.342,1.342,0,0,1,1.626-2.133,13.172,13.172,0,0,0,3.064,1.585,15.588,15.588,0,0,0,5.493.993q3.971,0,5.957-1.458a4.49,4.49,0,0,0,1.986-3.781,3.785,3.785,0,0,0-1.077-2.831,7.287,7.287,0,0,0-2.641-1.627,42.828,42.828,0,0,0-4.352-1.246,45.557,45.557,0,0,1-5.324-1.627,8.727,8.727,0,0,1-3.4-2.387,6.344,6.344,0,0,1-1.415-4.352,7.377,7.377,0,0,1,1.183-4.077,8.105,8.105,0,0,1,3.634-2.936,14.878,14.878,0,0,1,6.084-1.1,17.906,17.906,0,0,1,4.965.7,15.277,15.277,0,0,1,3.159,1.277,1.355,1.355,0,0,1-1.293,2.382,14.472,14.472,0,0,0-2.69-1.082,14.844,14.844,0,0,0-4.141-.613,9.558,9.558,0,0,0-5.852,1.5,4.653,4.653,0,0,0-1.964,3.866,3.856,3.856,0,0,0,1.077,2.852,7.062,7.062,0,0,0,2.7,1.648q1.626.57,4.373,1.246a44.1,44.1,0,0,1,5.26,1.584,8.637,8.637,0,0,1,3.4,2.366,6.263,6.263,0,0,1,1.395,4.289,7.281,7.281,0,0,1-1.2,4.077,8.1,8.1,0,0,1-3.7,2.915,15.448,15.448,0,0,1-6.126,1.077,18.991,18.991,0,0,1-6.317-1.056" transform="translate(-681.741 -82.195)" fill="#fc442f"/>
      <path id="Path_11727" data-name="Path 11727" d="M374.017,286.615V271.987H190.292a8.822,8.822,0,0,1,2.746,11.7,8.674,8.674,0,0,1-2.739,2.93Z" transform="translate(-146.727 -209.719)" fill="#75ae1b"/>
      <path id="Path_11728" data-name="Path 11728" d="M400.721,294.545h2.072v-2.6l2.361-4.938h-2.169l-.578,1.576q-.205.568-.241.672-.193.487-.373,1.009h-.048q-.073-.22-.138-.406t-.127-.336l-.325-.939-.578-1.576h-2.217l2.361,4.938Zm-6.87-5.958h.747a1.832,1.832,0,0,1,.946.191.722.722,0,0,1,.307.666.893.893,0,0,1-.319.742,1.469,1.469,0,0,1-.934.255h-.747Zm4.458,5.958-1.7-2.921a2.375,2.375,0,0,0,.928-.858,2.462,2.462,0,0,0,.337-1.321,2.066,2.066,0,0,0-.862-1.872,4.1,4.1,0,0,0-2.271-.562h-2.964v7.534h2.072v-2.527h.8l1.349,2.527Zm-13.322,0h5.18v-1.669h-3.108v-1.345h2.554v-1.669h-2.554V288.68h2.988v-1.669h-5.06Zm-4.416.139a3.756,3.756,0,0,0,1.632-.33,2.562,2.562,0,0,0,1.06-.881,2.118,2.118,0,0,0,.367-1.2,2.086,2.086,0,0,0-1.53-2.063l-.952-.359q-.338-.116-.614-.232a1.524,1.524,0,0,1-.41-.232.368.368,0,0,1-.133-.29.419.419,0,0,1,.217-.377,1.15,1.15,0,0,1,.6-.134,2.3,2.3,0,0,1,.789.134,3.567,3.567,0,0,1,.777.411l1.036-1.252a3.442,3.442,0,0,0-1.211-.753,4.006,4.006,0,0,0-1.391-.255,3.5,3.5,0,0,0-1.5.313,2.546,2.546,0,0,0-1.042.852,2.023,2.023,0,0,0-.374,1.176,1.973,1.973,0,0,0,.44,1.3,2.68,2.68,0,0,0,1.138.8l.976.394q.313.116.566.226a1.385,1.385,0,0,1,.373.22.368.368,0,0,1,.12.284q0,.533-.891.533a2.422,2.422,0,0,1-.916-.2,3.946,3.946,0,0,1-.915-.527l-1.181,1.368a4.221,4.221,0,0,0,1.4.806,4.766,4.766,0,0,0,1.56.272m-8.107-6.1h.747a1.832,1.832,0,0,1,.946.191.722.722,0,0,1,.307.666.893.893,0,0,1-.319.742,1.469,1.469,0,0,1-.934.255h-.747Zm4.458,5.958-1.7-2.921a2.377,2.377,0,0,0,.928-.858,2.462,2.462,0,0,0,.337-1.321,2.066,2.066,0,0,0-.861-1.872,4.1,4.1,0,0,0-2.271-.562h-2.964v7.534h2.072v-2.527h.8l1.349,2.527Zm-11.5.139a3,3,0,0,0,2.422-.922,4.349,4.349,0,0,0,.783-2.857v-3.894h-2v4.126a2.583,2.583,0,0,1-.289,1.408,1.03,1.03,0,0,1-.916.423,1,1,0,0,1-.9-.417,2.67,2.67,0,0,1-.277-1.414v-4.126h-2.072v3.894a4.28,4.28,0,0,0,.8,2.851,3.066,3.066,0,0,0,2.452.927m-11.374-.139h1.976v-2.179a18.549,18.549,0,0,0-.193-2.26l-.072-.615h.048l.747,1.681,1.735,3.373h2.12v-7.534h-1.976v2.179a20.717,20.717,0,0,0,.2,2.411q.048.336.06.464h-.048l-.747-1.692-1.735-3.361h-2.12Zm-8.366,0h2.072V288.68h2.072v-1.669h-6.216v1.669h2.072Zm-9.608,0h1.976v-2.179a18.546,18.546,0,0,0-.193-2.26l-.072-.615h.048l.747,1.681,1.735,3.373h2.12v-7.534h-1.976v2.179a20.71,20.71,0,0,0,.2,2.411q.048.336.06.464h-.048l-.747-1.692-1.735-3.361h-2.12Zm-5.386-3.141.133-.522q.217-.788.482-2.063l.072-.325h.048l.265,1.089q.157.707.313,1.3l.133.522Zm2.2,3.141h2.193l-2.385-7.534h-2.506l-2.385,7.534h2.12l.386-1.6h2.193Zm-10.923,0h5.036v-1.669h-2.964v-5.865h-2.072Zm-5.207-3.964v-1.994h.7a1.643,1.643,0,0,1,.934.22.8.8,0,0,1,.319.707,1.02,1.02,0,0,1-.3.788,1.291,1.291,0,0,1-.9.278Zm-2.072,3.964h2.072v-2.388h.843a4.187,4.187,0,0,0,1.566-.284,2.514,2.514,0,0,0,1.138-.881,2.472,2.472,0,0,0,.428-1.478,2.134,2.134,0,0,0-.88-1.918,4.086,4.086,0,0,0-2.3-.585H314.69Zm-7.233.139a4.335,4.335,0,0,0,1.506-.261,3.335,3.335,0,0,0,1.144-.666v-3.593H307.12v1.623h1.157v1.043a1.11,1.11,0,0,1-.6.139,1.972,1.972,0,0,1-1.542-.562,2.376,2.376,0,0,1-.506-1.64,2.32,2.32,0,0,1,.518-1.594,1.7,1.7,0,0,1,1.337-.585,1.874,1.874,0,0,1,.753.139,2.6,2.6,0,0,1,.645.417l1.084-1.275a3.674,3.674,0,0,0-1.1-.719,3.631,3.631,0,0,0-1.452-.278,4.083,4.083,0,0,0-1.952.475,3.586,3.586,0,0,0-1.422,1.374,4.519,4.519,0,0,0-.012,4.225,3.281,3.281,0,0,0,1.416,1.3,4.568,4.568,0,0,0,2.018.435m-9.118-6.1h.747a1.831,1.831,0,0,1,.946.191.722.722,0,0,1,.307.666.893.893,0,0,1-.319.742,1.469,1.469,0,0,1-.934.255h-.747Zm4.458,5.958-1.7-2.921a2.377,2.377,0,0,0,.928-.858,2.463,2.463,0,0,0,.337-1.321,2.066,2.066,0,0,0-.861-1.872,4.1,4.1,0,0,0-2.271-.562h-2.964v7.534h2.072v-2.527h.8l1.349,2.527Zm-13.322,0h5.18v-1.669h-3.108v-1.345H294.1v-1.669h-2.554V288.68h2.988v-1.669h-5.06Zm-5.442-1.53v-1.6h.843a1.791,1.791,0,0,1,.915.18.636.636,0,0,1,.289.585q0,.834-1.2.835Zm0-3.06v-1.414h.7a1.446,1.446,0,0,1,.747.151.542.542,0,0,1,.241.5.688.688,0,0,1-.247.562,1.148,1.148,0,0,1-.741.2Zm-2.072,4.59h3.06a4.038,4.038,0,0,0,2.217-.556,1.852,1.852,0,0,0,.867-1.669,1.714,1.714,0,0,0-.374-1.147,1.956,1.956,0,0,0-.976-.614v-.046a1.457,1.457,0,0,0,.711-.643,1.9,1.9,0,0,0,.277-.979,1.51,1.51,0,0,0-.8-1.455,4.652,4.652,0,0,0-2.169-.423h-2.819Zm-6.3,0H280.7v-1.669h-2.964v-5.865H275.66Zm-6.792,0h5.18v-1.669H270.94v-1.345h2.554v-1.669H270.94V288.68h2.988v-1.669h-5.06Zm-7.8,0h2.072v-1.878l.747-1.02,1.735,2.9h2.265l-2.8-4.474,2.337-3.06h-2.265l-1.976,2.8h-.048v-2.8h-2.072Zm-4.416.139a3.757,3.757,0,0,0,1.633-.33,2.564,2.564,0,0,0,1.06-.881,2.119,2.119,0,0,0,.367-1.2,2.086,2.086,0,0,0-1.53-2.063l-.952-.359q-.337-.116-.614-.232a1.53,1.53,0,0,1-.41-.232.369.369,0,0,1-.133-.29.419.419,0,0,1,.217-.377,1.15,1.15,0,0,1,.6-.134,2.3,2.3,0,0,1,.789.134,3.573,3.573,0,0,1,.777.411l1.036-1.252a3.44,3.44,0,0,0-1.211-.753,4.008,4.008,0,0,0-1.392-.255,3.5,3.5,0,0,0-1.5.313,2.546,2.546,0,0,0-1.042.852,2.023,2.023,0,0,0-.373,1.176,1.972,1.972,0,0,0,.44,1.3,2.678,2.678,0,0,0,1.139.8l.976.394q.313.116.566.226a1.388,1.388,0,0,1,.374.22.368.368,0,0,1,.12.284q0,.533-.892.533a2.423,2.423,0,0,1-.916-.2,3.955,3.955,0,0,1-.915-.527l-1.181,1.368a4.217,4.217,0,0,0,1.4.806,4.765,4.765,0,0,0,1.56.272m-8-3.28.133-.522q.217-.788.482-2.063l.072-.325h.048l.265,1.089q.156.707.313,1.3l.133.522Zm2.2,3.141h2.193l-2.385-7.534H248.16l-2.385,7.534h2.12l.386-1.6h2.193Zm-12.548,0h2.072v-2.99h2.337v2.99h2.072v-7.534h-2.072v2.8h-2.337v-2.8H238.31Z" transform="translate(-183.752 -221.196)" fill="#fff"/>
    </g>
  </g>
</svg>
