<svg xmlns="http://www.w3.org/2000/svg" width="427.699" height="427.539" viewBox="0 0 427.699 427.539">
  <g id="Group_705" data-name="Group 705" transform="translate(-83.813 -224.258)">
    <g id="Group_705-2" data-name="Group 705">
      <path id="Path_5460" data-name="Path 5460" d="M405.3,254.089a4.924,4.924,0,0,1,.912,2.754,5.731,5.731,0,0,1-.8,2.908,5.794,5.794,0,0,1-2.082,2.24,4.659,4.659,0,0,1-2.789.605,8.161,8.161,0,0,1-3.328-1.115l-4.186-2.348-3.733,6.654-1.38-.774,9.166-16.339,5.566,3.123A7.685,7.685,0,0,1,405.3,254.089Zm-3.771,6.958A4.005,4.005,0,0,0,404.016,259a4.593,4.593,0,0,0,.617-2.125,3.689,3.689,0,0,0-.614-2.1,5.569,5.569,0,0,0-2.038-1.8l-4.186-2.348-4.11,7.328,4.185,2.348A4.916,4.916,0,0,0,401.524,261.047Z" fill="#fff"/>
      <path id="Path_5461" data-name="Path 5461" d="M412.246,278.443l-.746,1.11-8.062-5.42-.929-.624,10.452-15.548,1.324.891-9.706,14.437Z" fill="#fff"/>
      <path id="Path_5462" data-name="Path 5462" d="M425.895,284.149l-6.654-5.318-4.786,2.9-1.286-1.028,17.225-10.217.9.724.271.216-6.158,19.061-1.286-1.028Zm.451-1.369,3.435-10.316-9.3,5.625Z" fill="#fff"/>
      <path id="Path_5463" data-name="Path 5463" d="M447.806,285.8l1.343,1.257-12.916,3.9-4.826,5.158-1.156-1.082,4.827-5.157,3.032-13.146,1.371,1.283-2.836,11.337Z" fill="#fff"/>
      <path id="Path_5464" data-name="Path 5464" d="M455.02,322.491l-1-1.23,6.373-5.154,6.563-5.124-17.24,4.955-.769-.95,8.438-15.759-6.344,5.313-6.373,5.153-.995-1.231,14.567-11.779.882,1.09.429.531-8.494,15.77,17.2-5,1.327,1.641Z" fill="#fff"/>
      <path id="Path_5465" data-name="Path 5465" d="M465.527,335.945l-1.118.734-5.778-8.813-.607-.926,15.666-10.272.869,1.324,5.481,8.361-1.13.741-5.481-8.361-5.9,3.867,4.8,7.316-1.13.741-4.8-7.317-6.391,4.19Z" fill="#fff"/>
      <path id="Path_5466" data-name="Path 5466" d="M481.748,338.326l1.351-.212.538,4.507,4.205-2.205.615,1.2-4.316,2.073,3.357,2.982-.977.975-3.259-3.161-2.071,4.293-1.225-.617,2.255-4.242-4.677-.56.2-1.331,4.725.738Z" fill="#fff"/>
      <path id="Path_5467" data-name="Path 5467" d="M498.513,366.782a4.942,4.942,0,0,1-1.075,2.695,6.377,6.377,0,0,1-5.52,2.084,4.672,4.672,0,0,1-2.522-1.332,8.177,8.177,0,0,1-1.83-3l-1.69-4.492-7.141,2.689-.557-1.482,17.533-6.6,2.248,5.972A7.669,7.669,0,0,1,498.513,366.782Zm-7.365,2.9a4,4,0,0,0,3.224.037,4.584,4.584,0,0,0,1.841-1.229,3.684,3.684,0,0,0,.882-2,5.558,5.558,0,0,0-.4-2.688L495,359.3l-7.863,2.96,1.69,4.491A4.917,4.917,0,0,0,491.148,369.679Z" fill="#fff"/>
      <path id="Path_5468" data-name="Path 5468" d="M488.146,389.912l-1.286.367-2.672-9.339-.308-1.077,18.012-5.152.439,1.533-16.726,4.785Z" fill="#fff"/>
      <path id="Path_5469" data-name="Path 5469" d="M494.893,403.05l-1.656-8.356-5.524-.873-.32-1.615,19.753,3.3.224,1.136.068.34-17,10.6-.32-1.616Zm1.228-.755,9.278-5.668-10.739-1.7Z" fill="#fff"/>
      <path id="Path_5470" data-name="Path 5470" d="M510.565,418.465l.214,1.828-12.38-5.36-7.015.825-.185-1.572,7.016-.825,10.8-8.084.218,1.867-9.484,6.827Z" fill="#fff"/>
      <path id="Path_5471" data-name="Path 5471" d="M492.407,451.149l.032-1.582,8.2.17,8.32.315-16.372-7.328.025-1.222,16.611-6.605-8.275-.03-8.194-.171.032-1.582,18.731.389-.03,1.4-.013.682-16.661,6.578,16.373,7.264-.044,2.11Z" fill="#fff"/>
      <path id="Path_5472" data-name="Path 5472" d="M491.773,468.22l-1.328-.16,1.261-10.462.132-1.1,18.6,2.241-.19,1.572-1.195,9.925-1.342-.161,1.2-9.926-7-.843-1.047,8.686-1.341-.162,1.046-8.686-7.587-.915Z" fill="#fff"/>
      <path id="Path_5473" data-name="Path 5473" d="M502.635,480.52l1.17.708-2.494,3.792,4.635,1.026-.305,1.315-4.636-1.2.643,4.443-1.375.117-.454-4.519-4.35,1.947-.538-1.261,4.458-1.79-3.215-3.443,1.013-.887,3.136,3.609Z" fill="#fff"/>
      <path id="Path_5474" data-name="Path 5474" d="M497.105,513.066a4.927,4.927,0,0,1-2.558,1.366,6.372,6.372,0,0,1-5.563-1.966,4.673,4.673,0,0,1-1.069-2.645,8.158,8.158,0,0,1,.534-3.469l1.6-4.524-7.192-2.55.529-1.492,17.657,6.262-2.133,6.015A7.665,7.665,0,0,1,497.105,513.066Zm-7.5-2.536a4,4,0,0,0,2.441,2.109,4.588,4.588,0,0,0,2.2.247,3.673,3.673,0,0,0,1.966-.962,5.549,5.549,0,0,0,1.428-2.313l1.6-4.523-7.919-2.809-1.6,4.524A4.908,4.908,0,0,0,489.609,510.53Z" fill="#fff"/>
      <path id="Path_5475" data-name="Path 5475" d="M474.263,524.076l-1.221-.548,3.98-8.862.458-1.02,17.09,7.674-.653,1.456-15.869-7.128Z" fill="#fff"/>
      <path id="Path_5476" data-name="Path 5476" d="M470.946,538.476l4.121-7.455-3.661-4.229.8-1.441,12.972,15.257-.561,1.014-.168.3-19.825-2.86.8-1.441Zm1.425.214,10.747,1.649-7.111-8.225Z" fill="#fff"/>
      <path id="Path_5477" data-name="Path 5477" d="M472.995,560.36l-1.014,1.536-6.01-12.078-5.9-3.891.872-1.321,5.9,3.892,13.468.78-1.036,1.569-11.652-.893Z" fill="#fff"/>
      <path id="Path_5478" data-name="Path 5478" d="M438.041,573.62l1.047-1.187,6.149,5.419,6.154,5.609L443.612,567.3l.809-.917,16.95,5.674-6.3-5.364-6.15-5.418,1.047-1.187,14.056,12.385-.927,1.051-.45.512-16.973-5.727,7.82,16.116-1.4,1.583Z" fill="#fff"/>
      <path id="Path_5479" data-name="Path 5479" d="M426.55,586.235l-.911-.98,7.715-7.177.81-.754,12.76,13.717-1.158,1.078-7.321,6.81-.921-.99,7.321-6.809-4.8-5.162-6.406,5.959-.921-.989,6.406-5.959-5.205-5.6Z" fill="#fff"/>
      <path id="Path_5480" data-name="Path 5480" d="M426.918,602.638l.437,1.3L423,605.224,425.887,609l-1.083.809-2.772-3.905-2.372,3.812-1.126-.8,2.566-3.746-4.58-1.316.4-1.313,4.562,1.508-.238-4.7,1.347-.026.069,4.782Z" fill="#fff"/>
      <path id="Path_5481" data-name="Path 5481" d="M401.729,623.956a4.929,4.929,0,0,1-2.837-.6,6.375,6.375,0,0,1-2.99-5.086,4.657,4.657,0,0,1,.886-2.712,8.158,8.158,0,0,1,2.643-2.31l4.139-2.428-3.859-6.582,1.365-.8,9.477,16.161-5.505,3.227A7.673,7.673,0,0,1,401.729,623.956Zm-4.1-6.768a4,4,0,0,0,.509,3.185,4.588,4.588,0,0,0,1.523,1.605,3.667,3.667,0,0,0,2.123.53,5.555,5.555,0,0,0,2.582-.85l4.14-2.428-4.25-7.248-4.14,2.428A4.914,4.914,0,0,0,397.627,617.188Z" fill="#fff"/>
      <path id="Path_5482" data-name="Path 5482" d="M377.183,617.667l-.581-1.206,8.75-4.22,1.008-.486,8.138,16.874-1.436.693L385.5,613.653Z" fill="#fff"/>
      <path id="Path_5483" data-name="Path 5483" d="M365.361,626.555l7.953-3.051-.078-5.593,1.538-.59.1,20.027-1.081.415-.324.124-13.329-14.952,1.538-.59Zm.953,1.082,7.163,8.18-.147-10.872Z" fill="#fff"/>
      <path id="Path_5484" data-name="Path 5484" d="M352.816,644.618l-1.764.522,3.184-13.11-2-6.774,1.518-.448,2,6.774,9.8,9.275-1.8.532-8.336-8.191Z" fill="#fff"/>
      <path id="Path_5485" data-name="Path 5485" d="M317.542,632.207l1.565-.232,1.2,8.108,1.08,8.255,4.49-17.366,1.209-.18,9.287,15.273-1.353-8.163-1.2-8.107,1.567-.232,2.745,18.532-1.387.205-.675.1L326.8,633.072l-4.426,17.358-2.087.308Z" fill="#fff"/>
      <path id="Path_5486" data-name="Path 5486" d="M300.609,634.424l-.063-1.337,10.526-.5,1.106-.053.89,18.713-1.581.075-9.986.476-.063-1.35,9.986-.475-.336-7.043-8.739.416-.065-1.35,8.739-.416-.363-7.634Z" fill="#fff"/>
      <path id="Path_5487" data-name="Path 5487" d="M290.338,647.2l-.5,1.273-4.159-1.819-.228,4.743-1.349-.08.4-4.771-4.271,1.385-.346-1.335,4.376-1.211-2.654-3.959,1.153-.744,2.517,4.093,2.851-3.75,1.045.847-3.028,3.7Z" fill="#fff"/>
      <path id="Path_5488" data-name="Path 5488" d="M257.318,647.259a4.924,4.924,0,0,1-1.78-2.29,5.742,5.742,0,0,1-.222-3.008,5.812,5.812,0,0,1,1.214-2.808,4.667,4.667,0,0,1,2.425-1.5,8.163,8.163,0,0,1,3.51-.062l4.73.812,1.291-7.52,1.56.267-3.171,18.464-6.29-1.08A7.672,7.672,0,0,1,257.318,647.259Zm1.225-7.819a4.005,4.005,0,0,0-1.662,2.763,4.583,4.583,0,0,0,.129,2.209,3.673,3.673,0,0,0,1.282,1.774,5.552,5.552,0,0,0,2.522,1.014l4.73.813,1.422-8.282-4.73-.812A4.913,4.913,0,0,0,258.543,639.44Z" fill="#fff"/>
      <path id="Path_5489" data-name="Path 5489" d="M242.612,626.628l.332-1.3,9.41,2.415,1.084.278-4.657,18.147-1.546-.4,4.325-16.849Z" fill="#fff"/>
      <path id="Path_5490" data-name="Path 5490" d="M227.848,625.8l8.046,2.8,3.546-4.325,1.556.541-12.835,15.372-1.094-.38-.328-.115-.547-20.023,1.556.541Zm.03,1.44.2,10.871,6.9-8.4Z" fill="#fff"/>
      <path id="Path_5491" data-name="Path 5491" d="M206.609,631.515l-1.685-.74,10.888-7.966,2.838-6.468,1.449.636-2.838,6.468,1.508,13.407-1.721-.755-1.09-11.636Z" fill="#fff"/>
      <path id="Path_5492" data-name="Path 5492" d="M187.643,599.29l1.346.831-4.307,6.974-4.494,7.009,14.625-10.385,1.04.641-2.742,17.664,4.226-7.113,4.308-6.973,1.346.831-9.844,15.939-1.193-.736-.58-.359,2.791-17.694-14.571,10.419-1.795-1.109Z" fill="#fff"/>
      <path id="Path_5493" data-name="Path 5493" d="M173.273,590.074l.813-1.062,8.37,6.4.879.672-11.382,14.88-1.257-.961-7.941-6.074.821-1.074,7.941,6.075,4.284-5.6-6.95-5.315.821-1.074,6.95,5.316,4.643-6.07Z" fill="#fff"/>
      <path id="Path_5494" data-name="Path 5494" d="M157.184,593.2l-1.2.649-2-4.074-3.236,3.476-.978-.932,3.383-3.387-4.156-1.7.6-1.243,4.125,1.9.529-4.738,1.36.176-.72,4.751,4.6-1.024.251,1.322-4.7.872Z" fill="#fff"/>
      <path id="Path_5495" data-name="Path 5495" d="M131.919,571.939a4.915,4.915,0,0,1,.118-2.9,5.723,5.723,0,0,1,1.772-2.44,5.79,5.79,0,0,1,2.738-1.363,4.667,4.667,0,0,1,2.822.417,8.161,8.161,0,0,1,2.722,2.217l3.09,3.672,5.839-4.911,1.019,1.211L137.7,579.9l-4.108-4.883A7.68,7.68,0,0,1,131.919,571.939Zm5.981-5.182a4,4,0,0,0-3.053,1.038,4.572,4.572,0,0,0-1.326,1.771,3.669,3.669,0,0,0-.166,2.182,5.557,5.557,0,0,0,1.273,2.4l3.089,3.673,6.43-5.409-3.089-3.673A4.915,4.915,0,0,0,137.9,566.757Z" fill="#fff"/>
      <path id="Path_5496" data-name="Path 5496" d="M133.974,546.675l1.09-.777,5.636,7.914.649.912L126.09,565.592l-.926-1.3L139.333,554.2Z" fill="#fff"/>
      <path id="Path_5497" data-name="Path 5497" d="M123.232,536.562l4.354,7.321,5.5-1.026.842,1.416-19.719,3.495-.592-1-.178-.3,12.478-15.67.841,1.416Zm-.9,1.122-6.849,8.445,10.69-1.987Z" fill="#fff"/>
      <path id="Path_5498" data-name="Path 5498" d="M103.307,527.277l-.814-1.65,13.46.911,6.336-3.123.7,1.419-6.336,3.123-7.476,11.231-.83-1.685L115,527.9Z" fill="#fff"/>
      <path id="Path_5499" data-name="Path 5499" d="M109.535,490.377l.494,1.5-7.786,2.559L94.291,496.9l17.876,1.478.382,1.162L99.073,511.288l7.815-2.718,7.786-2.559.495,1.5-17.8,5.85-.438-1.332-.213-.647,13.532-11.737L92.4,498.232l-.659-2Z" fill="#fff"/>
      <path id="Path_5500" data-name="Path 5500" d="M104.494,474.066l1.307-.288,2.268,10.291.238,1.081-18.295,4.032-.341-1.546-2.151-9.763,1.319-.291,2.152,9.764,6.885-1.518-1.882-8.545,1.319-.29,1.883,8.544,7.464-1.644Z" fill="#fff"/>
      <path id="Path_5501" data-name="Path 5501" d="M90.186,466.088l-1.338-.281,1.1-4.4-4.714.566-.147-1.343,4.771-.4-2.077-3.981,1.259-.563,1.923,4.113,3.462-3.276.926,1.011-3.617,3.164,4.173,2.186-.661,1.173L91.09,461.68Z" fill="#fff"/>
      <path id="Path_5502" data-name="Path 5502" d="M84.673,433.349a4.932,4.932,0,0,1,1.991-2.111,5.743,5.743,0,0,1,2.939-.679,5.8,5.8,0,0,1,2.96.768,4.666,4.666,0,0,1,1.856,2.166,8.167,8.167,0,0,1,.6,3.459l-.079,4.8,7.63.123-.026,1.583-18.732-.3.1-6.381A7.673,7.673,0,0,1,84.673,433.349Zm7.914.012a4,4,0,0,0-2.984-1.219,4.581,4.581,0,0,0-2.164.466,3.675,3.675,0,0,0-1.556,1.538,5.552,5.552,0,0,0-.615,2.648l-.078,4.8,8.4.136.077-4.8A4.909,4.909,0,0,0,92.587,433.361Z" fill="#fff"/>
      <path id="Path_5503" data-name="Path 5503" d="M102.468,415.56l1.333.108-.79,9.683-.091,1.116-18.672-1.526.129-1.589,17.339,1.416Z" fill="#fff"/>
      <path id="Path_5504" data-name="Path 5504" d="M100.771,400.9l-1.389,8.4,4.865,2.759-.268,1.625-17.33-10.037.189-1.142.057-.343,19.639-3.94-.268,1.625Zm-1.414.275-10.68,2.043,9.454,5.371Z" fill="#fff"/>
      <path id="Path_5505" data-name="Path 5505" d="M91.526,380.957l.442-1.786,9.7,9.374,6.857,1.7-.38,1.536-6.857-1.7-12.955,3.765.452-1.824,11.28-3.052Z" fill="#fff"/>
      <path id="Path_5506" data-name="Path 5506" d="M120.072,356.785l-.592,1.468-7.6-3.064-7.668-3.243L116.922,364.6l-.457,1.133-17.873.289,7.727,2.961,7.6,3.064-.592,1.468-17.376-7,.524-1.3.255-.632,17.911-.245-12.736-12.6.789-1.957Z" fill="#fff"/>
      <path id="Path_5507" data-name="Path 5507" d="M126.739,341.053l1.185.622-4.9,9.33-.514.979-16.586-8.711.736-1.4,4.649-8.851,1.195.628-4.648,8.851,6.242,3.279,4.069-7.746,1.2.628-4.069,7.746,6.767,3.554Z" fill="#fff"/>
      <path id="Path_5508" data-name="Path 5508" d="M120.953,325.715l-.842-1.078,3.679-2.658-3.969-2.607.754-1.121,3.907,2.767.977-4.382,1.327.38-1.181,4.384,4.758-.274.055,1.371-4.8.088,1.781,4.361-1.261.47-1.649-4.489Z" fill="#fff"/>
      <path id="Path_5509" data-name="Path 5509" d="M137.666,297.252a4.932,4.932,0,0,1,2.877-.37,5.735,5.735,0,0,1,2.7,1.338,5.806,5.806,0,0,1,1.8,2.47,4.663,4.663,0,0,1,.062,2.853,8.157,8.157,0,0,1-1.728,3.055l-3.1,3.662,5.822,4.932L145.08,316.4,130.785,304.29l4.126-4.87A7.686,7.686,0,0,1,137.666,297.252Zm6.113,5.027a4,4,0,0,0-1.536-2.835,4.554,4.554,0,0,0-1.969-1.01,3.658,3.658,0,0,0-2.178.2,5.546,5.546,0,0,0-2.155,1.657l-3.1,3.662,6.411,5.431,3.1-3.662A4.914,4.914,0,0,0,143.779,302.279Z" fill="#fff"/>
      <path id="Path_5510" data-name="Path 5510" d="M162.915,295.04l.948.944-6.854,6.884-.79.794-13.276-13.218,1.125-1.131L156.4,301.587Z" fill="#fff"/>
      <path id="Path_5511" data-name="Path 5511" d="M171.083,282.744l-6.483,5.524,1.935,5.248-1.254,1.068-6.762-18.85.881-.751.265-.225,17.545,9.662-1.253,1.069Zm-1.258-.7-9.477-5.331,3.757,10.2Z" fill="#fff"/>
      <path id="Path_5512" data-name="Path 5512" d="M176.875,261.538l1.49-1.081,1.374,13.421,4.147,5.718-1.281.929-4.147-5.718-12.331-5.473,1.52-1.1,10.592,4.938Z" fill="#fff"/>
      <path id="Path_5513" data-name="Path 5513" d="M214.279,261.434l-1.4.742-3.843-7.239-3.78-7.419,1.578,17.868-1.08.573L191.9,254.672l4.005,7.241,3.844,7.239-1.4.742-8.786-16.546,1.238-.658.6-.32,13.862,11.345-1.635-17.838,1.864-.99Z" fill="#fff"/>
      <path id="Path_5514" data-name="Path 5514" d="M229.5,253.69l.506,1.239-9.756,3.984-1.024.419-7.083-17.344,1.465-.6,9.256-3.78.51,1.25-9.255,3.78,2.666,6.528,8.1-3.308.51,1.251-8.1,3.307,2.89,7.077Z" fill="#fff"/>
      <path id="Path_5515" data-name="Path 5515" d="M234.955,238.229l.05-1.366,4.527.338-1.356-4.551,1.3-.371,1.206,4.634,3.57-2.722.77,1.145-3.729,2.592,3.815,2.857-.84,1.084-3.73-3.028-1.448,4.482-1.268-.453,1.632-4.495Z" fill="#fff"/>
      <path id="Path_5516" data-name="Path 5516" d="M266.113,227.247a4.923,4.923,0,0,1,2.437,1.573,5.732,5.732,0,0,1,1.2,2.766,5.794,5.794,0,0,1-.218,3.051,4.652,4.652,0,0,1-1.792,2.219,8.16,8.16,0,0,1-3.292,1.219l-4.733.8,1.265,7.524-1.561.263-3.106-18.475,6.294-1.058A7.661,7.661,0,0,1,266.113,227.247Zm1.426,7.784a4,4,0,0,0,.657-3.157,4.593,4.593,0,0,0-.852-2.042,3.669,3.669,0,0,0-1.8-1.251,5.555,5.555,0,0,0-2.715-.124l-4.733.795,1.393,8.287,4.733-.8A4.917,4.917,0,0,0,267.539,235.031Z" fill="#fff"/>
      <path id="Path_5517" data-name="Path 5517" d="M286.792,241.857l.115,1.333-9.679.835-1.115.1-1.61-18.665,1.59-.137,1.494,17.332Z" fill="#fff"/>
      <path id="Path_5518" data-name="Path 5518" d="M300.9,237.684l-8.517.138-1.845,5.281-1.646.026,6.772-18.846,1.158-.019.347-.006,7.393,18.617-1.647.027Zm-.523-1.343L296.458,226.2l-3.591,10.263Z" fill="#fff"/>
      <path id="Path_5519" data-name="Path 5519" d="M319.084,225.254l1.835.134-7.6,11.147-.514,7.045-1.578-.116.514-7.045-5.9-12.132,1.874.137,4.915,10.6Z" fill="#fff"/>
      <path id="Path_5520" data-name="Path 5520" d="M347.74,249.28l-1.547-.334,1.728-8.012,1.892-8.108L339.5,247.5l-1.194-.257-3.323-17.564-1.6,8.117-1.728,8.012-1.547-.333,3.948-18.314,1.371.3.667.144,3.285,17.609,10.248-14.692,2.063.445Z" fill="#fff"/>
      <path id="Path_5521" data-name="Path 5521" d="M364.355,253.172l-.412,1.273L353.917,251.2l-1.053-.341,5.769-17.824,1.505.487,9.512,3.079-.416,1.285-9.512-3.078-2.171,6.709,8.325,2.693-.416,1.286-8.325-2.694-2.353,7.271Z" fill="#fff"/>
      <path id="Path_5522" data-name="Path 5522" d="M378.513,244.877l.919-1.012,3.242,3.177,1.9-4.353,1.233.554-2.067,4.319,4.485.222-.151,1.371-4.521-.422,1.074,4.643-1.341.287-.9-4.72-4,2.493-.676-1.164,4.145-2.384Z" fill="#fff"/>
    </g>
  </g>
</svg>
