<svg xmlns="http://www.w3.org/2000/svg" width="58.402" height="57.236" viewBox="0 0 58.402 57.236">
  <path id="Union_1" data-name="Union 1" d="M-597.451,46.054l.513-2.255a27.391,27.391,0,0,1,2.477-34.738,29.249,29.249,0,0,1,40.547-1.72,27.433,27.433,0,0,1,1.767,39.48,29.273,29.273,0,0,1-35.326,5.424l-2.262.694L-599.715,56Zm24.093,5.885c13.121,0,23.849-9.991,24.6-22.584,0-.053.007-.106.01-.159,0-.073.006-.146.009-.219.005-.128.012-.255.015-.383,0-.074,0-.148,0-.222,0-.125,0-.25,0-.375,0-.017,0-.035,0-.052,0-.072,0-.144,0-.217,0-.106,0-.212,0-.317s-.007-.227-.011-.34c0-.077-.005-.154-.009-.231-.006-.139-.015-.278-.024-.417,0-.047-.006-.094-.009-.142q-.018-.249-.04-.5l0-.049c-1.146-12.215-11.7-21.786-24.538-21.786C-586.965,3.95-598,14.7-598,27.945a23.478,23.478,0,0,0,4.928,14.4l-.024.1-.592,2.611-.192.845-1.168,5.145,5.163-1.581,1.722-.527,1.866-.571A25.012,25.012,0,0,0-573.358,51.94Zm6.542-10.089c-8.222.774-20.8-11.957-20.037-20.07a6.852,6.852,0,0,1,1.574-5.337,8.066,8.066,0,0,1,2.187-1.978c2.538-.921,3.263.268,3.263.268s2.125,5.509,2.391,6.376-1.2,2.625-1.956,3.075-.354,1.394-.354,1.394c.841,2.128,6.381,8.073,8.469,9.091,0,0,.924.483,1.457-.209s2.468-1.941,3.329-1.6c1.455.577,5.905,2.007,6.581,3.315.231.448.4,1.322-.34,2.8a6.749,6.749,0,0,1-5.755,2.9C-566.272,41.886-566.542,41.874-566.815,41.851Z" transform="translate(602.506 0.504)" fill="#fc3" stroke="rgba(0,0,0,0)" stroke-miterlimit="10" stroke-width="1"/>
</svg>
